<?xml version="1.0" encoding="UTF-8"?>
<svg viewBox="0 0 432.58835 326.06601" xmlns="http://www.w3.org/2000/svg">
 <g transform="translate(-110.11 510.14)">
  <path d="m181.1-296.09 5.463-58.181 2.7315-19.667v-123.74c2.6777-2.9427 5.6094-3.5991 9.014 0v124.56l2.4584 19.394 4.3704 58.181z" fill="#4d4d4d"/>
  <path d="m181.1-296.09 5.463-58.181c0.2679 0.0458 14.204 0.5463 14.204 0.5463l4.3704 58.181z" fill="#1a1a1a"/>
  <g transform="matrix(-1 0 0 1 652.81 0)">
   <path d="m181.1-296.09 5.463-58.181 2.7315-19.667v-123.74c2.6777-2.9427 5.6094-3.5991 9.014 0v124.56l2.4584 19.394 4.3704 58.181z" fill="#4d4d4d"/>
   <path d="m181.1-296.09 5.463-58.181c0.2679 0.0458 14.204 0.5463 14.204 0.5463l4.3704 58.181z" fill="#1a1a1a"/>
  </g>
 </g>
 <g transform="translate(-124.37 426.14)" fill="#4d4d4d">
  <path d="m211.63-222.92c83.12-4.414 166.24-3.7049 249.36 0l43.847 23.564-328.35-0.57474z"/>
  <g transform="matrix(.81275 0 0 .89489 63.791 -47.57)">
   <path d="m138.47-190.93h48.075c2.2699 0 4.0973 1.8274 4.0973 4.0973v65.01c0 8.0695-9.6845 11.879-18.028 11.746l-34.144-0.5463c-2.2696-0.0363-4.0973-1.8274-4.0973-4.0973v-72.112c0-2.2699 1.8274-4.0973 4.0973-4.0973z"/>
   <path d="m542.86-190.93h-48.075c-2.2699 0-4.0973 1.8274-4.0973 4.0973v65.01c0 8.0695 9.6845 11.879 18.028 11.746l34.144-0.5463c2.2696-0.0363 4.0973-1.8274 4.0973-4.0973v-72.112c0-2.2699-1.8274-4.0973-4.0973-4.0973z"/>
  </g>
 </g>
 <g transform="translate(-124.37 426.14)" fill="#0038ff">
  <path d="m138.47-190.93h48.075c2.2699 0 4.0973 1.8274 4.0973 4.0973v65.01c0 8.0695-9.6845 11.879-18.028 11.746l-34.144-0.5463c-2.2696-0.0363-4.0973-1.8274-4.0973-4.0973v-72.112c0-2.2699 1.8274-4.0973 4.0973-4.0973z"/>
  <path d="m542.86-190.93h-48.075c-2.2699 0-4.0973 1.8274-4.0973 4.0973v65.01c0 8.0695 9.6845 11.879 18.028 11.746l34.144-0.5463c2.2696-0.0363 4.0973-1.8274 4.0973-4.0973v-72.112c0-2.2699-1.8274-4.0973-4.0973-4.0973z"/>
 </g>
 <g transform="translate(22.473 454.1)">
  <path d="m44.146-238.54c96.419-4.414 192.84-3.7049 289.26 0l50.863 23.564-380.89-0.57474z" fill="#0038ff"/>
 </g>
 <g transform="translate(-124.37 426.14)">
  <path d="m142.16-185.89c132.89-5.1992 265.77-4.9977 398.66 0 6.6234 23.344 4.9816 43.588 0 62.58-128.36 10.57-261.56 9.8194-398.66 0-10.129-21.781-5.6115-42.23 0-62.58z" fill="#0054ff"/>
 </g>
 <g transform="translate(-124.37 426.14)">
  <path d="m149.88-161.94h191.99v44.549c-63.4 0.44267-127.63-1.1726-191.99-6.5794z"/>
 </g>
 <g transform="translate(-124.37 426.14)">
  <path d="m341.44-161.97h67.196v43.89c-22.286 0.46504-44.425 1.3742-67.196 0.3863z" fill="#0038ff"/>
 </g>
 <path transform="translate(30.716 486.5)" d="m130.18-193.33c0 1.0134-0.82152 1.8349-1.8349 1.8349s-1.8349-0.82151-1.8349-1.8349 0.82151-1.8349 1.8349-1.8349 1.8349 0.82152 1.8349 1.8349z" fill="#fff"/>
 <path transform="translate(53.37 486.5)" d="m130.18-193.33c0 1.0134-0.82152 1.8349-1.8349 1.8349s-1.8349-0.82151-1.8349-1.8349 0.82151-1.8349 1.8349-1.8349 1.8349 0.82152 1.8349 1.8349z" fill="#fff"/>
 <path transform="translate(76.023 486.5)" d="m130.18-193.33c0 1.0134-0.82152 1.8349-1.8349 1.8349s-1.8349-0.82151-1.8349-1.8349 0.82151-1.8349 1.8349-1.8349 1.8349 0.82152 1.8349 1.8349z" fill="#fff"/>
</svg>
