<?xml version="1.0" encoding="utf-8"?>
<!-- Generator: Adobe Illustrator 22.0.1, SVG Export Plug-In . SVG Version: 6.00 Build 0)  -->
<svg version="1.1" xmlns="http://www.w3.org/2000/svg" xmlns:xlink="http://www.w3.org/1999/xlink" x="0px" y="0px"
	 viewBox="0 0 748.1 206.7" style="enable-background:new 0 0 748.1 206.7;" xml:space="preserve">
<style type="text/css">
	.st0{display:none;}
	.st1{display:inline;}
	.st2{fill:#733CA6;}
	.st3{fill:#FFFFFF;}
	.st4{fill:#F8A29D;}
	.st5{fill:none;stroke:#733CA6;stroke-width:3.011;stroke-miterlimit:10;}
	.st6{fill:#F2564D;stroke:#733CA6;stroke-width:3.0106;stroke-miterlimit:10;}
	.st7{fill:#FFFEFE;}
	.st8{fill:#FFFDFD;}
	.st9{fill:#FFFCFC;}
	.st10{fill:#FFFBFB;}
	.st11{fill:#FFFAFA;}
	.st12{fill:#FFF9F9;}
	.st13{fill:#FEF8F8;}
	.st14{fill:#FEF7F7;}
	.st15{fill:#FEF6F6;}
	.st16{fill:#FEF6F5;}
	.st17{fill:#FEF5F4;}
	.st18{fill:#FEF4F3;}
	.st19{fill:#FEF3F2;}
	.st20{fill:#FEF2F1;}
	.st21{fill:#FEF1F0;}
	.st22{fill:#FEF0EF;}
	.st23{fill:#FEEFEE;}
	.st24{fill:#FEEEED;}
	.st25{fill:#FEEDEC;}
	.st26{fill:#FEECEB;}
	.st27{fill:#FDEBEA;}
	.st28{fill:#FDEAE9;}
	.st29{fill:#FDE9E8;}
	.st30{fill:#FDE8E7;}
	.st31{fill:#FDE7E6;}
	.st32{fill:#FDE6E5;}
	.st33{fill:#FDE5E4;}
	.st34{fill:#FDE4E3;}
	.st35{fill:#FDE3E2;}
	.st36{fill:#FDE3E1;}
	.st37{fill:#FDE2E0;}
	.st38{fill:#FDE1DF;}
	.st39{fill:#FDE0DE;}
	.st40{fill:#FDDFDD;}
	.st41{fill:#FCDEDC;}
	.st42{fill:#FCDDDB;}
	.st43{fill:#FCDCDA;}
	.st44{fill:#FCDBD9;}
	.st45{fill:#FCDAD8;}
	.st46{fill:#FCD9D7;}
	.st47{fill:#FCD8D6;}
	.st48{fill:#FCD7D5;}
	.st49{fill:#FCD6D4;}
	.st50{fill:#FCD5D3;}
	.st51{fill:#FCD4D2;}
	.st52{fill:#FCD3D1;}
	.st53{fill:#FCD2D0;}
	.st54{fill:#FBD1CF;}
	.st55{fill:#FBD0CE;}
	.st56{fill:#FBD0CD;}
	.st57{fill:#FBCFCC;}
	.st58{fill:#FBCECB;}
	.st59{fill:#FBCDCA;}
	.st60{fill:#FBCCC9;}
	.st61{fill:#FBCBC8;}
	.st62{fill:#FBCAC7;}
	.st63{fill:#FBC9C6;}
	.st64{fill:#FBC8C5;}
	.st65{fill:#FBC7C4;}
	.st66{fill:#FBC6C3;}
	.st67{fill:#FBC5C2;}
	.st68{fill:#FAC4C1;}
	.st69{fill:#FAC3C0;}
	.st70{fill:#FAC2BF;}
	.st71{fill:#FAC1BE;}
	.st72{fill:#FAC0BD;}
	.st73{fill:#FABFBC;}
	.st74{fill:#FABEBB;}
	.st75{fill:#FABDBA;}
	.st76{fill:#FABDB9;}
	.st77{fill:#FABCB8;}
	.st78{fill:#FABBB7;}
	.st79{fill:#FABAB6;}
	.st80{fill:#FAB9B5;}
	.st81{fill:#FAB8B4;}
	.st82{fill:#F9B7B3;}
	.st83{fill:#F9B6B2;}
	.st84{fill:#F9B5B1;}
	.st85{fill:#F9B4B0;}
	.st86{fill:#F9B3AF;}
	.st87{fill:#F9B2AE;}
	.st88{fill:#F9B1AD;}
	.st89{fill:#F9B0AC;}
	.st90{fill:#F9AFAB;}
	.st91{fill:#F9AEAA;}
	.st92{fill:#F9ADA9;}
	.st93{fill:#F9ACA8;}
	.st94{fill:#F9ABA7;}
	.st95{fill:#F9ABA6;}
	.st96{fill:#F8AAA5;}
	.st97{fill:#F8A9A4;}
	.st98{fill:#F8A8A3;}
	.st99{fill:#F8A7A2;}
	.st100{fill:#F8A6A1;}
	.st101{fill:#F8A5A0;}
	.st102{fill:#F8A49F;}
	.st103{fill:#F8A39E;}
	.st104{fill:#F8A19C;}
	.st105{fill:#F8A09B;}
	.st106{fill:#F89F9A;}
	.st107{fill:#F89E99;}
	.st108{fill:#F79D98;}
	.st109{fill:#F79C97;}
	.st110{fill:#F79B96;}
	.st111{fill:#F79A95;}
	.st112{fill:#F79994;}
	.st113{fill:#F79893;}
	.st114{fill:#F79892;}
	.st115{fill:#F79791;}
	.st116{fill:#F79690;}
	.st117{fill:#F7958F;}
	.st118{fill:#F7948E;}
	.st119{fill:#F7938D;}
	.st120{fill:#F7928C;}
	.st121{fill:#F7918B;}
	.st122{fill:#F6908A;}
	.st123{fill:#F68F89;}
	.st124{fill:#F68E88;}
	.st125{fill:#F68D87;}
	.st126{fill:#F68C86;}
	.st127{fill:#F68B85;}
	.st128{fill:#F68A84;}
	.st129{fill:#F68983;}
	.st130{fill:#F68882;}
	.st131{fill:#F68781;}
	.st132{fill:#F68680;}
	.st133{fill:#F6857F;}
	.st134{fill:#F6857E;}
	.st135{fill:#F6847D;}
	.st136{fill:#F5837C;}
	.st137{fill:#F5827B;}
	.st138{fill:#F5817A;}
	.st139{fill:#F58079;}
	.st140{fill:#F57F78;}
	.st141{fill:#F57E77;}
	.st142{fill:#F57D76;}
	.st143{fill:#F57C75;}
	.st144{fill:#F57B74;}
	.st145{fill:#F57A73;}
	.st146{fill:#F57972;}
	.st147{fill:#F57871;}
	.st148{fill:#F57770;}
	.st149{fill:#F4766F;}
	.st150{fill:#F4756E;}
	.st151{fill:#F4746D;}
	.st152{fill:#F4736C;}
	.st153{fill:#F4726B;}
	.st154{fill:#F4726A;}
	.st155{fill:#F47169;}
	.st156{fill:#F47068;}
	.st157{fill:#F46F67;}
	.st158{fill:#F46E66;}
	.st159{fill:#F46D65;}
	.st160{fill:#F46C64;}
	.st161{fill:#F46B63;}
	.st162{fill:#F46A62;}
	.st163{fill:#F36961;}
	.st164{fill:#F36860;}
	.st165{fill:#F3675F;}
	.st166{fill:#F3665E;}
	.st167{fill:#F3655D;}
	.st168{fill:#F3645C;}
	.st169{fill:#F3635B;}
	.st170{fill:#F3625A;}
	.st171{fill:#F36159;}
	.st172{fill:#F36058;}
	.st173{fill:#F35F57;}
	.st174{fill:#F35F56;}
	.st175{fill:#F35E55;}
	.st176{fill:#F35D54;}
	.st177{fill:#F25C53;}
	.st178{fill:#F25B52;}
	.st179{fill:#F25A51;}
	.st180{fill:#F25950;}
	.st181{fill:#F2584F;}
	.st182{fill:#F2574E;}
	.st183{fill:#F2564D;}
	.st184{fill:none;stroke:#733CA6;stroke-width:3;stroke-linejoin:round;stroke-miterlimit:10;}
	.st185{fill:none;stroke:#733CA6;stroke-width:2.9559;stroke-linejoin:round;stroke-miterlimit:10;}
	.st186{display:inline;fill:none;}
	.st187{display:inline;fill:#231F20;}
	.st188{font-family:'HelveticaNeueW01-75Bold';}
	.st189{font-size:25.0007px;}
	.st190{fill:none;stroke:#733CA6;stroke-width:4.5;stroke-miterlimit:10;}
	.st191{fill:#F2564D;stroke:#733CA6;stroke-width:4.5;stroke-miterlimit:10;}
	.st192{fill:none;stroke:#733CA6;stroke-width:3.5;stroke-miterlimit:10;}
	.st193{fill:#F2564D;stroke:#733CA6;stroke-width:3.5;stroke-miterlimit:10;}
	.st194{fill:#231F20;}
</style>
<g id="Live_text_x26_lines" class="st0">
	<rect x="329.2" y="102.2" class="st186" width="163.1" height="30.1"/>
	<text transform="matrix(1 0 0 1 329.2068 120.0483)" class="st187 st188 st189">Raven TestKit</text>
</g>
<g id="Layer_1">
	<g>
		<g>
			<g>
				<path class="st3" d="M229.1,154.3l0.1,0c3.9,0,7.6-2.1,9.5-5.5l11.3-19.5c2-3.4,2-7.6,0-11l0,0c-4.2-7.3-14.7-7.3-19-0.1
					l-11.4,19.5C215.4,145.1,220.6,154.2,229.1,154.3z"/>
			</g>
			<g>
				<path class="st4" d="M267.2,118L267.2,118c-5.2-9-18.1-9-23.3,0l0,0c-5.2,9,1.3,20.2,11.6,20.2h0
					C265.9,138.2,272.4,127,267.2,118z"/>
			</g>
			<g>
				<path class="st2" d="M229.2,155.3C229.2,155.3,229.2,155.3,229.2,155.3h-0.1c-4.4,0-8.3-2.3-10.5-6.1c-2.2-3.8-2.2-8.3,0-12.1
					l11.4-19.5c2.2-3.8,6.1-6,10.4-6c0,0,0,0,0,0c4.4,0,8.2,2.3,10.4,6c2.1,3.7,2.1,8.3,0,12.1l-11.3,19.5
					C237.5,153,233.5,155.3,229.2,155.3z M229.1,153.2h0.1c0,0,0,0,0,0c3.5,0,6.8-1.9,8.6-4.9l11.3-19.5c1.8-3,1.8-6.8,0-9.9
					c-1.8-3.1-5-4.9-8.5-5c-3.6,0-6.8,1.8-8.6,4.9l-11.4,19.5c-1.8,3.1-1.8,6.8,0,9.9C222.3,151.3,225.5,153.2,229.1,153.2z"/>
			</g>
			<g>
				<polygon class="st183" points="230,62.1 186.9,136.6 212.3,136.6 242.8,84.2 				"/>
				<path class="st2" d="M212.9,137.7l-27.9,0l45-77.8l14,24.4L212.9,137.7z M188.8,135.5l22.8,0l29.9-51.3l-11.5-20L188.8,135.5z"
					/>
			</g>
		</g>
	</g>
	<g>
		<path class="st194" d="M301.9,102.2h9.6c0.8,0,1.5,0.1,2.2,0.4s1.2,0.6,1.7,1.1c0.5,0.4,0.8,1,1,1.6c0.2,0.6,0.4,1.2,0.4,1.9
			c0,1-0.2,2-0.7,2.7c-0.4,0.8-1.2,1.4-2.2,1.8v0c0.5,0.1,0.9,0.3,1.2,0.6s0.6,0.6,0.8,1c0.2,0.4,0.3,0.8,0.4,1.2
			c0.1,0.4,0.2,0.9,0.2,1.3c0,0.3,0,0.6,0,1c0,0.4,0,0.8,0.1,1.2c0,0.4,0.1,0.8,0.2,1.1s0.2,0.7,0.4,0.9h-3.9
			c-0.1-0.3-0.2-0.6-0.3-0.9c-0.1-0.3-0.1-0.7-0.2-1.1s-0.1-0.8-0.1-1.1c0-0.4-0.1-0.8-0.1-1.1c-0.1-0.9-0.4-1.6-0.9-2.1
			c-0.4-0.4-1.1-0.6-2.1-0.6h-3.9v7h-3.9V102.2z M305.9,110.3h4.3c0.9,0,1.6-0.2,2-0.6c0.5-0.4,0.7-1,0.7-1.9c0-0.9-0.2-1.5-0.7-1.9
			c-0.5-0.4-1.1-0.6-2-0.6h-4.3V110.3z"/>
		<path class="st194" d="M319.2,111.1c0-0.8,0.3-1.5,0.6-2.1c0.4-0.5,0.8-1,1.4-1.3c0.6-0.3,1.2-0.6,1.9-0.7
			c0.7-0.1,1.4-0.2,2.2-0.2c0.6,0,1.3,0,2,0.1s1.3,0.3,1.8,0.5c0.5,0.3,1,0.6,1.4,1.1c0.3,0.5,0.5,1.1,0.5,1.9v6.7
			c0,0.6,0,1.1,0.1,1.7c0.1,0.5,0.2,0.9,0.3,1.2h-3.6c-0.1-0.2-0.1-0.4-0.2-0.6c0-0.2-0.1-0.4-0.1-0.6c-0.6,0.6-1.2,1-2,1.2
			c-0.8,0.2-1.5,0.4-2.3,0.4c-0.6,0-1.2-0.1-1.7-0.2c-0.5-0.2-1-0.4-1.4-0.7c-0.4-0.3-0.7-0.7-0.9-1.2c-0.2-0.5-0.3-1.1-0.3-1.7
			c0-0.7,0.1-1.3,0.4-1.8c0.2-0.5,0.6-0.9,1-1.1c0.4-0.3,0.9-0.5,1.4-0.6c0.5-0.1,1.1-0.3,1.6-0.3c0.5-0.1,1.1-0.1,1.6-0.2
			c0.5,0,0.9-0.1,1.3-0.2c0.4-0.1,0.7-0.2,0.9-0.4s0.4-0.5,0.4-0.8c0-0.4-0.1-0.7-0.2-0.9c-0.1-0.2-0.3-0.4-0.5-0.5
			c-0.2-0.1-0.5-0.2-0.7-0.2c-0.3,0-0.6-0.1-0.9-0.1c-0.7,0-1.2,0.1-1.6,0.5c-0.4,0.3-0.6,0.8-0.7,1.5H319.2z M327.4,113.7
			c-0.2,0.1-0.3,0.2-0.6,0.3c-0.2,0.1-0.5,0.1-0.7,0.2c-0.3,0-0.5,0.1-0.8,0.1c-0.3,0-0.6,0.1-0.8,0.1c-0.3,0-0.5,0.1-0.8,0.2
			s-0.5,0.2-0.7,0.3s-0.3,0.3-0.5,0.5c-0.1,0.2-0.2,0.5-0.2,0.8c0,0.3,0.1,0.6,0.2,0.8c0.1,0.2,0.3,0.4,0.5,0.5s0.4,0.2,0.7,0.3
			s0.5,0.1,0.8,0.1c0.7,0,1.2-0.1,1.6-0.4c0.4-0.2,0.7-0.5,0.8-0.8c0.2-0.3,0.3-0.7,0.3-1c0-0.3,0.1-0.6,0.1-0.8V113.7z"/>
		<path class="st194" d="M340.5,120h-4l-4.4-12.9h3.7l2.7,8.8h0l2.7-8.8h3.5L340.5,120z"/>
		<path class="st194" d="M349,114.4c0,1.1,0.3,2,0.9,2.5c0.5,0.5,1.3,0.8,2.3,0.8c0.7,0,1.3-0.2,1.8-0.5c0.5-0.4,0.8-0.7,1-1.1h3.1
			c-0.5,1.5-1.3,2.6-2.3,3.3c-1,0.7-2.3,1-3.8,1c-1,0-1.9-0.2-2.8-0.5c-0.8-0.3-1.5-0.8-2.1-1.4c-0.6-0.6-1-1.3-1.3-2.2
			c-0.3-0.8-0.5-1.8-0.5-2.8c0-1,0.2-1.9,0.5-2.7c0.3-0.8,0.8-1.6,1.3-2.2c0.6-0.6,1.3-1.1,2.1-1.4s1.7-0.5,2.7-0.5
			c1.1,0,2.1,0.2,2.9,0.6c0.8,0.4,1.5,1,2,1.7c0.5,0.7,0.9,1.5,1.1,2.5s0.3,1.9,0.2,2.9H349z M354.8,112.2c-0.2-0.9-0.5-1.6-0.9-2.1
			c-0.4-0.5-1.1-0.7-1.9-0.7c-0.6,0-1,0.1-1.4,0.3c-0.4,0.2-0.7,0.4-0.9,0.7c-0.2,0.3-0.4,0.6-0.5,0.9c-0.1,0.3-0.1,0.6-0.2,0.9
			H354.8z"/>
		<path class="st194" d="M360.1,107.1h3.4v1.8h0.1c0.5-0.7,1-1.3,1.8-1.6s1.5-0.5,2.2-0.5c1,0,1.7,0.1,2.3,0.4s1.1,0.6,1.4,1.1
			c0.3,0.5,0.6,1,0.7,1.7c0.1,0.7,0.2,1.4,0.2,2.2v8h-3.6v-7.3c0-1.1-0.2-1.9-0.5-2.4c-0.3-0.5-0.9-0.8-1.8-0.8
			c-1,0-1.7,0.3-2.1,0.9s-0.6,1.5-0.6,2.8v6.8h-3.6V107.1z"/>
		<path class="st194" d="M385.6,105.5h-5.3v-3.3h14.6v3.3h-5.3V120h-3.9V105.5z"/>
		<path class="st194" d="M396.4,114.4c0,1.1,0.3,2,0.9,2.5c0.5,0.5,1.3,0.8,2.3,0.8c0.7,0,1.3-0.2,1.8-0.5c0.5-0.4,0.8-0.7,1-1.1
			h3.1c-0.5,1.5-1.3,2.6-2.3,3.3c-1,0.7-2.3,1-3.8,1c-1,0-1.9-0.2-2.8-0.5c-0.8-0.3-1.5-0.8-2.1-1.4c-0.6-0.6-1-1.3-1.3-2.2
			c-0.3-0.8-0.5-1.8-0.5-2.8c0-1,0.2-1.9,0.5-2.7c0.3-0.8,0.8-1.6,1.3-2.2c0.6-0.6,1.3-1.1,2.1-1.4s1.7-0.5,2.7-0.5
			c1.1,0,2.1,0.2,2.9,0.6c0.8,0.4,1.5,1,2,1.7c0.5,0.7,0.9,1.5,1.1,2.5s0.3,1.9,0.2,2.9H396.4z M402.2,112.2
			c-0.2-0.9-0.5-1.6-0.9-2.1c-0.4-0.5-1.1-0.7-1.9-0.7c-0.6,0-1,0.1-1.4,0.3c-0.4,0.2-0.7,0.4-0.9,0.7c-0.2,0.3-0.4,0.6-0.5,0.9
			c-0.1,0.3-0.1,0.6-0.2,0.9H402.2z"/>
		<path class="st194" d="M410.3,115.8c0,0.4,0.1,0.7,0.2,1c0.2,0.3,0.4,0.5,0.6,0.7s0.5,0.3,0.9,0.4s0.7,0.1,1,0.1
			c0.2,0,0.5,0,0.8-0.1c0.3-0.1,0.5-0.1,0.8-0.3c0.2-0.1,0.4-0.3,0.6-0.5c0.2-0.2,0.2-0.5,0.2-0.8c0-0.3-0.1-0.5-0.3-0.7
			c-0.2-0.2-0.4-0.4-0.8-0.5c-0.3-0.1-0.8-0.3-1.3-0.4s-1.1-0.3-1.7-0.4c-0.5-0.1-1-0.3-1.5-0.4c-0.5-0.2-0.9-0.4-1.3-0.6
			c-0.4-0.3-0.7-0.6-0.9-1s-0.3-0.9-0.3-1.4c0-0.8,0.2-1.5,0.5-2s0.8-1,1.3-1.3c0.5-0.3,1.1-0.5,1.8-0.6c0.7-0.1,1.3-0.2,2-0.2
			s1.4,0.1,2,0.2s1.2,0.4,1.8,0.7c0.5,0.3,0.9,0.7,1.3,1.3c0.3,0.5,0.5,1.2,0.6,2h-3.4c-0.1-0.7-0.3-1.1-0.8-1.4s-1-0.4-1.7-0.4
			c-0.2,0-0.4,0-0.6,0s-0.4,0.1-0.6,0.2s-0.4,0.2-0.5,0.4c-0.1,0.2-0.2,0.4-0.2,0.6c0,0.3,0.1,0.6,0.3,0.8s0.5,0.4,0.9,0.5
			s0.8,0.2,1.3,0.3s1,0.2,1.5,0.3c0.5,0.1,1,0.3,1.5,0.4c0.5,0.2,0.9,0.4,1.3,0.7c0.4,0.3,0.7,0.6,0.9,1c0.2,0.4,0.3,0.9,0.3,1.5
			c0,0.8-0.2,1.6-0.5,2.1c-0.3,0.6-0.8,1-1.3,1.4c-0.6,0.4-1.2,0.6-1.9,0.8c-0.7,0.1-1.4,0.2-2.2,0.2c-0.8,0-1.5-0.1-2.2-0.2
			c-0.7-0.1-1.4-0.4-1.9-0.8c-0.6-0.4-1-0.8-1.4-1.4c-0.4-0.6-0.6-1.3-0.6-2.1H410.3z"/>
		<path class="st194" d="M425.2,107.1h2.6v2.4h-2.6v6.4c0,0.6,0.1,1,0.3,1.2c0.2,0.2,0.6,0.3,1.2,0.3c0.4,0,0.8,0,1.1-0.1v2.8
			c-0.3,0.1-0.6,0.1-1,0.1c-0.4,0-0.7,0-1.1,0c-0.5,0-1.1,0-1.6-0.1c-0.5-0.1-0.9-0.2-1.3-0.5s-0.7-0.5-0.9-0.9s-0.3-0.9-0.3-1.6
			v-7.6h-2.1v-2.4h2.1v-3.9h3.6V107.1z"/>
		<path class="st194" d="M429.6,102.2h3.9v7.4l7-7.4h4.9l-7,7.1L446,120h-4.9l-5.4-8l-2.2,2.3v5.8h-3.9V102.2z"/>
		<path class="st194" d="M450.6,105.1H447v-2.9h3.5V105.1z M447,107.1h3.5V120H447V107.1z"/>
		<path class="st194" d="M457.6,107.1h2.6v2.4h-2.6v6.4c0,0.6,0.1,1,0.3,1.2c0.2,0.2,0.6,0.3,1.2,0.3c0.4,0,0.8,0,1.1-0.1v2.8
			c-0.3,0.1-0.6,0.1-1,0.1c-0.4,0-0.7,0-1.1,0c-0.5,0-1.1,0-1.6-0.1c-0.5-0.1-0.9-0.2-1.3-0.5s-0.7-0.5-0.9-0.9s-0.3-0.9-0.3-1.6
			v-7.6h-2.1v-2.4h2.1v-3.9h3.6V107.1z"/>
	</g>
</g>
</svg>
