<?xml version="1.0" encoding="utf-8"?>
<!-- Generator: Adobe Illustrator 16.0.4, SVG Export Plug-In . SVG Version: 6.00 Build 0)  -->
<!DOCTYPE svg PUBLIC "-//W3C//DTD SVG 1.1//EN" "http://www.w3.org/Graphics/SVG/1.1/DTD/svg11.dtd">
<svg version="1.1" id="Layer_1" xmlns="http://www.w3.org/2000/svg" xmlns:xlink="http://www.w3.org/1999/xlink" x="0px" y="0px"
	 width="295.334px" height="92px" viewBox="0 0 295.334 92" enable-background="new 0 0 295.334 92" xml:space="preserve">
<g>
	<g>
		<path fill="#F47B75" d="M60.892,18.365l-1.433-2.285L53.293,5.399c-0.763-1.32-2.009-1.32-2.771,0L3.886,86.175
			c-0.762,1.32-0.139,2.4,1.386,2.4h15.149L60.892,18.365z"/>
	</g>
	<g>
		<polygon fill="#F47B75" points="71.769,42.195 73.043,39.769 63.151,22.214 61.725,24.797 25.228,88.575 45.024,88.575 		"/>
	</g>
	<g>
		<g>
			<polygon fill="#F47B75" points="83.488,62.494 84.86,60.06 75.369,43.745 74.029,46.109 49.583,88.575 68.366,88.575 			"/>
		</g>
		<g>
			<path fill="#F47B75" d="M73.132,88.575h25.41c1.525,0,2.148-1.08,1.387-2.4l-12.77-22.163l-1.41,2.397L73.132,88.575z"/>
		</g>
	</g>
</g>
<g>
	<rect x="83.855" y="32.747" fill="none" width="219.646" height="45.297"/>
	<path fill="#939598" d="M113.289,50.797c0,2.461-0.928,4.25-2.785,5.367c-1.265,0.763-3.299,1.145-6.102,1.145
		c-2.152,0-4.016-0.154-5.588-0.461c-0.672-0.137-1.008-0.456-1.008-0.957v-0.855c0-0.387,0.387-0.552,1.162-0.495
		c1.811,0.137,3.702,0.205,5.674,0.205c2.164,0,3.605-0.177,4.323-0.53c0.786-0.398,1.179-1.23,1.179-2.494v-1.624
		c0-1.595-0.318-2.614-0.957-3.06c-0.512-0.342-1.674-0.512-3.486-0.512h-2.409c-2.165,0-3.708-0.484-4.632-1.453
		c-0.877-0.911-1.315-2.358-1.315-4.341c0-2.312,0.757-4.005,2.272-5.075c0.74-0.524,1.612-0.866,2.615-1.025
		c0.638-0.104,1.658-0.154,3.059-0.154c1.994,0,3.748,0.148,5.264,0.444c0.661,0.126,0.992,0.394,0.992,0.804v0.905
		c0,0.251-0.098,0.404-0.291,0.462c-0.103,0.022-0.388,0.033-0.854,0.033c-0.376,0-1.22,0-2.529,0
		c-1.413-0.011-2.433-0.017-3.06-0.017c-1.857,0-3.062,0.188-3.613,0.563c-0.554,0.377-0.83,1.162-0.83,2.359v0.684
		c0,1.4,0.16,2.278,0.479,2.631c0.445,0.49,1.561,0.735,3.35,0.735h1.351c2.974,0,5.007,0.521,6.101,1.563
		C112.742,46.688,113.289,48.405,113.289,50.797z"/>
	<path fill="#939598" d="M130.055,49.465c0,0.375-0.229,0.563-0.684,0.563h-9.383v1.367c0,1.288,0.359,2.182,1.077,2.683
		c0.615,0.445,1.624,0.667,3.024,0.667c1.061,0,2.523-0.12,4.393-0.358c0.479-0.058,0.718,0.113,0.718,0.512v0.975
		c0,0.251-0.194,0.444-0.581,0.581c-1.459,0.524-3.037,0.786-4.734,0.786c-2.21,0-3.851-0.575-4.922-1.727
		c-1.207-1.275-1.811-3.56-1.811-6.853c0-3.885,0.82-6.409,2.461-7.571c0.99-0.694,2.324-1.042,3.998-1.042
		c1.777,0,3.145,0.336,4.102,1.009c0.832,0.592,1.419,1.281,1.761,2.067c0.388,0.889,0.581,2.131,0.581,3.726V49.465z
		 M127.286,45.107c0-0.968-0.285-1.651-0.854-2.051c-0.57-0.398-1.51-0.599-2.82-0.599c-1.367,0-2.312,0.214-2.836,0.642
		c-0.525,0.427-0.787,1.177-0.787,2.247v2.529h7.298V45.107z"/>
	<path fill="#939598" d="M147.691,56.523c0,0.388-0.166,0.581-0.496,0.581h-1.846c-0.318,0-0.479-0.193-0.479-0.581V45.312
		c0-1.025-0.271-1.754-0.812-2.188c-0.541-0.433-1.415-0.649-2.623-0.649h-1.914c-1.116,0-1.903,0.062-2.358,0.188
		c-0.148,0.035-0.223,0.251-0.223,0.65v13.21c0,0.388-0.159,0.581-0.479,0.581h-1.846c-0.33,0-0.495-0.193-0.495-0.581V41.399
		c0-0.297,0.009-0.462,0.025-0.496c0.018-0.034,0.14-0.131,0.368-0.291c0.17-0.125,0.773-0.262,1.811-0.41
		c1.105-0.147,2.148-0.222,3.128-0.222h2.376c3.907,0,5.861,1.846,5.861,5.537V56.523z"/>
	<path fill="#939598" d="M159.568,56.165c0,0.25-0.137,0.438-0.41,0.563c-0.865,0.41-1.715,0.615-2.546,0.615
		c-2.45,0-3.675-1.47-3.675-4.409V42.612h-1.879c-0.32,0-0.479-0.171-0.479-0.513v-0.905c0-0.229,0.119-0.37,0.358-0.428
		l0.905-0.205c0.41-0.091,0.678-0.205,0.804-0.342c0.193-0.205,0.29-0.564,0.29-1.076V36.75c0-0.297,0.154-0.445,0.462-0.445h1.761
		c0.318,0,0.479,0.172,0.479,0.514v3.469h3.076c0.318,0,0.479,0.171,0.479,0.513v1.367c0,0.297-0.154,0.444-0.462,0.444h-3.093V52.9
		c0,0.764,0.107,1.299,0.324,1.606c0.262,0.388,0.758,0.581,1.486,0.581c0.582,0,1.094-0.079,1.539-0.239
		c0.125-0.034,0.227-0.051,0.307-0.051c0.183,0.011,0.273,0.131,0.273,0.358V56.165z"/>
	<path fill="#939598" d="M171.225,42.731c0,0.445-0.194,0.57-0.582,0.377c-0.752-0.388-1.498-0.582-2.238-0.582
		c-1.413,0-2.262,0.137-2.547,0.41c-0.182,0.172-0.273,0.49-0.273,0.957v12.63c0,0.388-0.165,0.581-0.495,0.581h-1.846
		c-0.331,0-0.495-0.193-0.495-0.581V45.192c0-1.72,0.518-3.008,1.555-3.861c1.116-0.924,2.746-1.385,4.888-1.385
		c0.638,0,1.173,0.114,1.606,0.342c0.285,0.137,0.428,0.354,0.428,0.649V42.731z"/>
	<path fill="#939598" d="M187.699,41.125l-5.879,18.115c-1.083,3.36-2.906,5.041-5.469,5.041c-0.547,0-1.168-0.119-1.863-0.359
		c-0.171-0.068-0.256-0.25-0.256-0.547v-1.076c0-0.239,0.222-0.342,0.666-0.308c0.945,0.057,1.311,0.085,1.094,0.085
		c1.526,0,2.598-0.974,3.213-2.922l0.786-2.547h-1.077c-0.433,0-0.734-0.25-0.905-0.752l-5.161-14.73
		c-0.193-0.547-0.057-0.82,0.41-0.82h1.948c0.296,0,0.501,0.17,0.615,0.512l4.528,13.844h0.24l4.221-13.877
		c0.091-0.319,0.336-0.479,0.734-0.479h1.727C187.727,40.305,187.869,40.579,187.699,41.125z"/>
	<path fill="#939598" d="M214.53,36.494c0,0.502-0.234,0.752-0.701,0.752h-5.947v19.209c0,0.434-0.234,0.649-0.701,0.649h-1.537
		c-0.469,0-0.701-0.25-0.701-0.752V37.246h-6.032c-0.468,0-0.701-0.25-0.701-0.752v-1.128c0-0.182,0.018-0.324,0.051-0.428
		c0.068-0.182,0.285-0.273,0.65-0.273h14.919c0.377,0,0.598,0.109,0.666,0.325c0.023,0.08,0.035,0.205,0.035,0.376V36.494z"/>
	<path fill="#939598" d="M230.405,49.465c0,0.375-0.228,0.563-0.684,0.563h-9.382v1.367c0,1.288,0.358,2.182,1.077,2.683
		c0.615,0.445,1.623,0.667,3.024,0.667c1.06,0,2.523-0.12,4.392-0.358c0.479-0.058,0.719,0.113,0.719,0.512v0.975
		c0,0.251-0.194,0.444-0.582,0.581c-1.458,0.524-3.036,0.786-4.733,0.786c-2.211,0-3.852-0.575-4.922-1.727
		c-1.208-1.275-1.812-3.56-1.812-6.853c0-3.885,0.82-6.409,2.461-7.571c0.991-0.694,2.324-1.042,3.999-1.042
		c1.777,0,3.145,0.336,4.102,1.009c0.831,0.592,1.419,1.281,1.761,2.067c0.387,0.889,0.58,2.131,0.58,3.726V49.465z M227.638,45.107
		c0-0.968-0.285-1.651-0.855-2.051c-0.569-0.398-1.51-0.599-2.819-0.599c-1.367,0-2.313,0.214-2.837,0.642
		c-0.524,0.427-0.786,1.177-0.786,2.247v2.529h7.298V45.107z"/>
	<path fill="#939598" d="M245.326,52.285c0,1.641-0.547,2.899-1.641,3.776c-1.003,0.82-2.507,1.23-4.512,1.23
		c-1.789,0-3.242-0.21-4.358-0.632c-0.444-0.159-0.667-0.37-0.667-0.632v-1.061c0-0.364,0.257-0.495,0.77-0.393
		c1.002,0.205,2.33,0.308,3.982,0.308c1.31,0,2.124-0.045,2.443-0.137c0.797-0.228,1.196-0.804,1.196-1.726v-1.658
		c0-0.865-0.263-1.424-0.786-1.675c-0.319-0.159-0.951-0.239-1.896-0.239h-1.504c-1.55,0-2.701-0.387-3.453-1.162
		c-0.672-0.694-1.008-1.856-1.008-3.486c0-1.538,0.587-2.785,1.76-3.742c0.832-0.673,2.113-1.009,3.846-1.009
		c1.287,0,2.62,0.153,3.999,0.462c0.455,0.091,0.684,0.302,0.684,0.632v0.991c0,0.342-0.263,0.473-0.786,0.393
		c-0.661-0.102-2.068-0.153-4.221-0.153c-1.025,0-1.727,0.137-2.103,0.41c-0.319,0.239-0.479,0.661-0.479,1.265v1.367
		c0,0.673,0.113,1.128,0.342,1.367c0.308,0.319,0.951,0.479,1.931,0.479l1.025-0.018c1.972,0,3.37,0.399,4.196,1.197
		C244.912,49.237,245.326,50.519,245.326,52.285z"/>
	<path fill="#939598" d="M256.622,56.165c0,0.25-0.137,0.438-0.41,0.563c-0.865,0.41-1.715,0.615-2.546,0.615
		c-2.45,0-3.675-1.47-3.675-4.409V42.612h-1.879c-0.319,0-0.479-0.171-0.479-0.513v-0.905c0-0.229,0.119-0.37,0.358-0.428
		l0.905-0.205c0.41-0.091,0.678-0.205,0.804-0.342c0.193-0.205,0.29-0.564,0.29-1.076V36.75c0-0.297,0.154-0.445,0.462-0.445h1.761
		c0.318,0,0.479,0.172,0.479,0.514v3.469h3.076c0.318,0,0.479,0.171,0.479,0.513v1.367c0,0.297-0.154,0.444-0.462,0.444h-3.093V52.9
		c0,0.764,0.107,1.299,0.324,1.606c0.262,0.388,0.758,0.581,1.486,0.581c0.582,0,1.094-0.079,1.539-0.239
		c0.125-0.034,0.228-0.051,0.307-0.051c0.183,0.011,0.273,0.131,0.273,0.358V56.165z"/>
	<path fill="#939598" d="M262.723,56.591c0,0.342-0.159,0.513-0.479,0.513h-1.76c-0.319,0-0.479-0.147-0.479-0.444V33.247
		c0-0.342,0.159-0.513,0.479-0.513h1.76c0.319,0,0.479,0.148,0.479,0.444V56.591z M273.797,56.557
		c0.114,0.137,0.148,0.263,0.104,0.376c-0.046,0.114-0.154,0.171-0.325,0.171h-2.222c-0.319,0-0.615-0.154-0.889-0.461l-7.229-8.066
		c-0.251-0.297-0.24-0.587,0.033-0.872l6.717-7.024c0.239-0.25,0.547-0.375,0.923-0.375h1.966c0.17,0,0.273,0.085,0.307,0.256
		c0.046,0.16,0.012,0.297-0.102,0.41l-6.904,7.127L273.797,56.557z"/>
	<path fill="#939598" d="M279.317,56.591c0,0.342-0.16,0.513-0.479,0.513h-1.761c-0.319,0-0.479-0.147-0.479-0.444V40.817
		c0-0.342,0.159-0.512,0.479-0.512h1.761c0.318,0,0.479,0.147,0.479,0.443V56.591z M279.317,37.399c0,0.342-0.16,0.514-0.479,0.514
		h-1.761c-0.308,0-0.462-0.148-0.462-0.445v-1.846c0-0.342,0.16-0.512,0.479-0.512h1.761c0.308,0,0.462,0.147,0.462,0.443V37.399z"
		/>
	<path fill="#939598" d="M291.297,56.165c0,0.25-0.137,0.438-0.41,0.563c-0.865,0.41-1.715,0.615-2.546,0.615
		c-2.45,0-3.675-1.47-3.675-4.409V42.612h-1.879c-0.319,0-0.479-0.171-0.479-0.513v-0.905c0-0.229,0.119-0.37,0.358-0.428
		l0.905-0.205c0.41-0.091,0.678-0.205,0.804-0.342c0.193-0.205,0.29-0.564,0.29-1.076V36.75c0-0.297,0.154-0.445,0.462-0.445h1.761
		c0.318,0,0.479,0.172,0.479,0.514v3.469h3.076c0.318,0,0.479,0.171,0.479,0.513v1.367c0,0.297-0.154,0.444-0.462,0.444h-3.093V52.9
		c0,0.764,0.107,1.299,0.324,1.606c0.262,0.388,0.758,0.581,1.486,0.581c0.582,0,1.094-0.079,1.539-0.239
		c0.125-0.034,0.228-0.051,0.307-0.051c0.183,0.011,0.273,0.131,0.273,0.358V56.165z"/>
	<path fill="#939598" d="M106.724,67.271c0,0.215-0.101,0.322-0.3,0.322h-2.549v8.232c0,0.186-0.101,0.278-0.301,0.278h-0.659
		c-0.2,0-0.3-0.107-0.3-0.322v-8.188h-2.586c-0.2,0-0.301-0.107-0.301-0.322v-0.483c0-0.078,0.008-0.139,0.022-0.184
		c0.029-0.077,0.122-0.117,0.278-0.117h6.395c0.16,0,0.256,0.047,0.285,0.14c0.01,0.034,0.015,0.088,0.015,0.161V67.271z"/>
	<path fill="#939598" d="M113.527,72.831c0,0.16-0.098,0.241-0.293,0.241h-4.021v0.586c0,0.552,0.153,0.936,0.462,1.149
		c0.264,0.191,0.695,0.286,1.296,0.286c0.454,0,1.081-0.052,1.882-0.153c0.205-0.024,0.309,0.049,0.309,0.219v0.418
		c0,0.107-0.084,0.19-0.25,0.249c-0.625,0.225-1.301,0.337-2.028,0.337c-0.947,0-1.65-0.246-2.109-0.74
		c-0.518-0.546-0.776-1.525-0.776-2.937c0-1.665,0.352-2.747,1.055-3.245c0.425-0.297,0.996-0.446,1.714-0.446
		c0.762,0,1.348,0.145,1.758,0.433c0.356,0.254,0.608,0.549,0.755,0.886c0.166,0.381,0.248,0.913,0.248,1.597V72.831z
		 M112.342,70.962c0-0.415-0.123-0.708-0.367-0.879s-0.646-0.257-1.208-0.257c-0.586,0-0.991,0.092-1.216,0.275
		c-0.225,0.183-0.337,0.504-0.337,0.963v1.084h3.128V70.962z"/>
	<path fill="#939598" d="M119.922,74.039c0,0.703-0.234,1.243-0.703,1.618c-0.43,0.352-1.074,0.527-1.934,0.527
		c-0.767,0-1.389-0.09-1.867-0.271c-0.191-0.068-0.286-0.158-0.286-0.271v-0.455c0-0.155,0.11-0.212,0.329-0.168
		c0.43,0.088,0.999,0.132,1.707,0.132c0.562,0,0.91-0.02,1.047-0.059c0.342-0.098,0.514-0.345,0.514-0.739v-0.711
		c0-0.371-0.113-0.61-0.338-0.718c-0.137-0.068-0.407-0.103-0.812-0.103h-0.645c-0.664,0-1.157-0.166-1.479-0.498
		c-0.288-0.298-0.433-0.796-0.433-1.494c0-0.659,0.252-1.193,0.755-1.604c0.356-0.288,0.905-0.433,1.647-0.433
		c0.553,0,1.123,0.065,1.715,0.198c0.195,0.039,0.293,0.129,0.293,0.271v0.425c0,0.146-0.113,0.203-0.338,0.168
		c-0.283-0.043-0.886-0.065-1.809-0.065c-0.439,0-0.74,0.059-0.9,0.176c-0.137,0.103-0.205,0.283-0.205,0.542v0.586
		c0,0.288,0.049,0.483,0.146,0.586c0.131,0.137,0.407,0.205,0.827,0.205l0.439-0.008c0.845,0,1.444,0.172,1.798,0.514
		S119.922,73.282,119.922,74.039z"/>
	<path fill="#939598" d="M124.764,75.702c0,0.107-0.059,0.188-0.176,0.241c-0.371,0.176-0.735,0.264-1.092,0.264
		c-1.05,0-1.574-0.63-1.574-1.89v-4.424h-0.807c-0.137,0-0.205-0.073-0.205-0.22v-0.388c0-0.098,0.052-0.159,0.154-0.184
		l0.389-0.088c0.176-0.039,0.29-0.088,0.344-0.146c0.083-0.088,0.125-0.242,0.125-0.461v-1.025c0-0.127,0.065-0.191,0.197-0.191
		h0.754c0.137,0,0.205,0.074,0.205,0.221v1.486h1.318c0.137,0,0.205,0.073,0.205,0.22v0.586c0,0.127-0.065,0.19-0.197,0.19h-1.326
		v4.409c0,0.327,0.047,0.557,0.14,0.688c0.112,0.166,0.325,0.249,0.638,0.249c0.248,0,0.469-0.034,0.658-0.103
		c0.055-0.015,0.098-0.021,0.133-0.021c0.078,0.005,0.117,0.056,0.117,0.153V75.702z"/>
	<path fill="#939598" d="M127.334,75.884c0,0.146-0.068,0.22-0.205,0.22h-0.754c-0.137,0-0.205-0.063-0.205-0.19v-6.79
		c0-0.146,0.068-0.219,0.205-0.219h0.754c0.137,0,0.205,0.063,0.205,0.189V75.884z M127.334,67.659c0,0.146-0.068,0.221-0.205,0.221
		h-0.754c-0.133,0-0.198-0.063-0.198-0.191v-0.791c0-0.146,0.068-0.219,0.205-0.219h0.755c0.131,0,0.197,0.063,0.197,0.189V67.659z"
		/>
	<path fill="#939598" d="M135.112,75.855c0,0.166-0.071,0.249-0.212,0.249h-0.791c-0.137,0-0.205-0.083-0.205-0.249V71.05
		c0-0.439-0.117-0.752-0.349-0.938s-0.606-0.278-1.124-0.278h-0.82c-0.479,0-0.815,0.027-1.011,0.08
		c-0.063,0.016-0.095,0.108-0.095,0.279v5.661c0,0.166-0.068,0.249-0.205,0.249h-0.791c-0.143,0-0.213-0.083-0.213-0.249v-6.481
		c0-0.127,0.004-0.198,0.011-0.213c0.008-0.015,0.06-0.056,0.157-0.125c0.074-0.053,0.332-0.111,0.777-0.176
		c0.473-0.062,0.92-0.095,1.34-0.095h1.018c1.676,0,2.513,0.791,2.513,2.373V75.855z"/>
	<path fill="#939598" d="M142.451,76.236c0,0.874-0.271,1.592-0.812,2.153c-0.436,0.444-1.094,0.666-1.979,0.666
		c-0.791,0-1.511-0.112-2.16-0.336c-0.195-0.064-0.293-0.154-0.293-0.271v-0.425c0-0.176,0.112-0.234,0.337-0.176
		c0.557,0.146,1.226,0.22,2.007,0.22c1.221,0,1.809-0.518,1.766-1.553l-0.052-1.121c-0.225,0.264-0.427,0.447-0.608,0.55
		c-0.268,0.151-0.612,0.228-1.032,0.228h-0.403c-0.775,0-1.377-0.217-1.801-0.648c-0.426-0.433-0.638-1.039-0.638-1.82v-2.183
		c0-0.884,0.257-1.569,0.769-2.058c0.484-0.459,1.133-0.689,1.949-0.689h0.893c1.074,0,1.705,0.069,1.891,0.205
		c0.098,0.069,0.149,0.111,0.157,0.129c0.007,0.017,0.011,0.087,0.011,0.209V76.236z M141.294,74.397v-4.248
		c0-0.165-0.026-0.258-0.081-0.277c-0.156-0.045-0.498-0.066-1.025-0.066h-0.842c-0.928,0-1.392,0.493-1.392,1.479v2.505
		c0,0.928,0.415,1.392,1.245,1.392h0.732c0.552,0,0.945-0.117,1.18-0.352C141.232,74.703,141.294,74.559,141.294,74.397z"/>
	<path fill="#939598" d="M153.621,69.256l-2.52,7.764c-0.465,1.439-1.246,2.16-2.344,2.16c-0.234,0-0.501-0.051-0.799-0.154
		c-0.073-0.029-0.109-0.107-0.109-0.234v-0.461c0-0.103,0.095-0.146,0.285-0.132c0.405,0.024,0.562,0.036,0.469,0.036
		c0.654,0,1.113-0.417,1.377-1.252l0.337-1.092h-0.462c-0.186,0-0.314-0.106-0.388-0.322l-2.212-6.312
		c-0.083-0.234-0.024-0.352,0.176-0.352h0.835c0.127,0,0.215,0.072,0.264,0.219l1.94,5.934h0.104l1.809-5.947
		c0.039-0.137,0.145-0.205,0.314-0.205h0.74C153.633,68.905,153.693,69.022,153.621,69.256z"/>
	<path fill="#939598" d="M161.055,72.369c0,1.206-0.22,2.112-0.659,2.718c-0.542,0.746-1.377,1.12-2.505,1.12h-0.015
		c-1.211,0-2.067-0.361-2.571-1.084c-0.404-0.581-0.607-1.455-0.607-2.622c0-1.143,0.168-1.989,0.506-2.541
		c0.502-0.815,1.394-1.224,2.673-1.224h0.015c1.289,0,2.176,0.388,2.658,1.165C160.887,70.448,161.055,71.27,161.055,72.369z
		 M159.839,73.086v-1.238c0-1.361-0.55-2.043-1.647-2.043h-0.711c-1.03,0-1.545,0.662-1.545,1.984v1.312
		c0,1.362,0.554,2.044,1.662,2.044h0.594C159.289,75.145,159.839,74.458,159.839,73.086z"/>
	<path fill="#939598" d="M169.126,75.598c0,0.133-0.101,0.232-0.3,0.301l-0.352,0.109c-0.289,0.098-0.462,0.146-0.521,0.146
		c-0.342,0-0.618-0.241-0.827-0.725c-0.367,0.508-0.906,0.762-1.619,0.762h-0.49c-1.607,0-2.41-0.83-2.41-2.49v-4.541
		c0-0.161,0.07-0.242,0.213-0.242h0.791c0.141,0,0.212,0.081,0.212,0.242v4.549c0,0.552,0.114,0.93,0.345,1.135
		c0.205,0.181,0.573,0.271,1.105,0.271h0.389c0.615,0,1.037-0.096,1.267-0.286c0.088-0.068,0.132-0.176,0.132-0.322v-5.347
		c0-0.161,0.07-0.242,0.213-0.242h0.783c0.142,0,0.213,0.081,0.213,0.242v5.398c0,0.381,0.111,0.57,0.336,0.57h0.286
		c0.156,0,0.234,0.076,0.234,0.228V75.598z"/>
	<path fill="#939598" d="M173.879,69.944c0,0.191-0.082,0.245-0.248,0.162c-0.322-0.166-0.643-0.25-0.96-0.25
		c-0.605,0-0.97,0.059-1.091,0.176c-0.078,0.074-0.117,0.211-0.117,0.41v5.413c0,0.166-0.071,0.249-0.213,0.249h-0.791
		c-0.142,0-0.213-0.083-0.213-0.249v-4.856c0-0.736,0.223-1.289,0.667-1.654c0.479-0.396,1.177-0.594,2.095-0.594
		c0.273,0,0.503,0.049,0.688,0.146c0.122,0.059,0.183,0.151,0.183,0.278V69.944z"/>
	<path fill="#939598" d="M182.375,69.944c0,0.191-0.082,0.245-0.248,0.162c-0.322-0.166-0.643-0.25-0.96-0.25
		c-0.605,0-0.97,0.059-1.091,0.176c-0.078,0.074-0.117,0.211-0.117,0.41v5.413c0,0.166-0.071,0.249-0.213,0.249h-0.791
		c-0.142,0-0.213-0.083-0.213-0.249v-4.856c0-0.736,0.223-1.289,0.667-1.654c0.479-0.396,1.177-0.594,2.095-0.594
		c0.273,0,0.503,0.049,0.688,0.146c0.122,0.059,0.183,0.151,0.183,0.278V69.944z"/>
	<path fill="#939598" d="M189.019,72.831c0,0.16-0.098,0.241-0.293,0.241h-4.021v0.586c0,0.552,0.153,0.936,0.461,1.149
		c0.264,0.191,0.695,0.286,1.297,0.286c0.453,0,1.081-0.052,1.882-0.153c0.205-0.024,0.308,0.049,0.308,0.219v0.418
		c0,0.107-0.083,0.19-0.249,0.249c-0.625,0.225-1.302,0.337-2.028,0.337c-0.947,0-1.65-0.246-2.109-0.74
		c-0.518-0.546-0.777-1.525-0.777-2.937c0-1.665,0.352-2.747,1.055-3.245c0.426-0.297,0.996-0.446,1.715-0.446
		c0.762,0,1.348,0.145,1.758,0.433c0.355,0.254,0.607,0.549,0.754,0.886c0.166,0.381,0.249,0.913,0.249,1.597V72.831z
		 M187.832,70.962c0-0.415-0.122-0.708-0.366-0.879s-0.647-0.257-1.208-0.257c-0.586,0-0.992,0.092-1.217,0.275
		c-0.225,0.183-0.336,0.504-0.336,0.963v1.084h3.127V70.962z"/>
	<path fill="#939598" d="M196.475,73.57c0,0.762-0.256,1.384-0.77,1.868c-0.492,0.469-1.113,0.703-1.859,0.703h-0.322
		c-0.445,0-0.771-0.052-0.982-0.154c-0.176-0.088-0.358-0.266-0.549-0.535v3.436c0,0.161-0.068,0.242-0.205,0.242h-0.77
		c-0.141,0-0.212-0.081-0.212-0.242v-9.58c0-0.137,0.071-0.229,0.212-0.278c0.426-0.156,1.148-0.234,2.168-0.234h0.645
		c0.781,0,1.402,0.198,1.861,0.593c0.521,0.45,0.783,1.113,0.783,1.992V73.57z M195.303,73.563v-2.19c0-1.021-0.477-1.53-1.428-1.53
		h-1.004c-0.605,0-0.908,0.08-0.908,0.241v4.372c0,0.201,0.061,0.345,0.184,0.433c0.258,0.176,0.568,0.264,0.93,0.264h0.799
		c0.527,0,0.915-0.19,1.164-0.571C195.215,74.302,195.303,73.963,195.303,73.563z"/>
	<path fill="#939598" d="M204.246,72.369c0,1.206-0.221,2.112-0.66,2.718c-0.541,0.746-1.377,1.12-2.504,1.12h-0.016
		c-1.211,0-2.067-0.361-2.57-1.084c-0.405-0.581-0.607-1.455-0.607-2.622c0-1.143,0.168-1.989,0.505-2.541
		c0.503-0.815,1.394-1.224,2.673-1.224h0.016c1.289,0,2.175,0.388,2.658,1.165C204.077,70.448,204.246,71.27,204.246,72.369z
		 M203.029,73.086v-1.238c0-1.361-0.549-2.043-1.647-2.043h-0.71c-1.031,0-1.546,0.662-1.546,1.984v1.312
		c0,1.362,0.554,2.044,1.663,2.044h0.593C202.48,75.145,203.029,74.458,203.029,73.086z"/>
	<path fill="#939598" d="M209.476,69.944c0,0.191-0.083,0.245-0.249,0.162c-0.322-0.166-0.643-0.25-0.96-0.25
		c-0.605,0-0.969,0.059-1.091,0.176c-0.078,0.074-0.117,0.211-0.117,0.41v5.413c0,0.166-0.071,0.249-0.212,0.249h-0.791
		c-0.143,0-0.213-0.083-0.213-0.249v-4.856c0-0.736,0.222-1.289,0.666-1.654c0.479-0.396,1.177-0.594,2.096-0.594
		c0.272,0,0.502,0.049,0.688,0.146c0.122,0.059,0.184,0.151,0.184,0.278V69.944z"/>
	<path fill="#939598" d="M214.009,75.702c0,0.107-0.059,0.188-0.176,0.241c-0.371,0.176-0.734,0.264-1.091,0.264
		c-1.05,0-1.575-0.63-1.575-1.89v-4.424h-0.805c-0.138,0-0.205-0.073-0.205-0.22v-0.388c0-0.098,0.051-0.159,0.153-0.184
		l0.388-0.088c0.176-0.039,0.291-0.088,0.345-0.146c0.083-0.088,0.124-0.242,0.124-0.461v-1.025c0-0.127,0.066-0.191,0.198-0.191
		h0.755c0.136,0,0.205,0.074,0.205,0.221v1.486h1.318c0.136,0,0.205,0.073,0.205,0.22v0.586c0,0.127-0.066,0.19-0.198,0.19h-1.325
		v4.409c0,0.327,0.046,0.557,0.139,0.688c0.112,0.166,0.324,0.249,0.637,0.249c0.25,0,0.469-0.034,0.66-0.103
		c0.053-0.015,0.097-0.021,0.131-0.021c0.078,0.005,0.117,0.056,0.117,0.153V75.702z"/>
	<path fill="#939598" d="M220.066,74.039c0,0.703-0.234,1.243-0.703,1.618c-0.431,0.352-1.075,0.527-1.934,0.527
		c-0.768,0-1.39-0.09-1.868-0.271c-0.19-0.068-0.286-0.158-0.286-0.271v-0.455c0-0.155,0.11-0.212,0.33-0.168
		c0.43,0.088,0.998,0.132,1.707,0.132c0.561,0,0.91-0.02,1.047-0.059c0.342-0.098,0.513-0.345,0.513-0.739v-0.711
		c0-0.371-0.112-0.61-0.337-0.718c-0.137-0.068-0.408-0.103-0.812-0.103h-0.645c-0.665,0-1.158-0.166-1.48-0.498
		c-0.288-0.298-0.432-0.796-0.432-1.494c0-0.659,0.251-1.193,0.754-1.604c0.356-0.288,0.906-0.433,1.648-0.433
		c0.552,0,1.123,0.065,1.714,0.198c0.195,0.039,0.293,0.129,0.293,0.271v0.425c0,0.146-0.112,0.203-0.337,0.168
		c-0.283-0.043-0.887-0.065-1.809-0.065c-0.439,0-0.74,0.059-0.901,0.176c-0.137,0.103-0.205,0.283-0.205,0.542v0.586
		c0,0.288,0.049,0.483,0.146,0.586c0.132,0.137,0.407,0.205,0.827,0.205l0.439-0.008c0.845,0,1.444,0.172,1.799,0.514
		C219.889,72.733,220.066,73.282,220.066,74.039z"/>
	<path fill="#939598" d="M234.686,75.855c0,0.166-0.071,0.249-0.212,0.249h-0.784c-0.142,0-0.212-0.083-0.212-0.249v-4.907
		c0-0.425-0.105-0.72-0.315-0.887c-0.186-0.15-0.493-0.227-0.923-0.227h-0.601c-0.444,0-0.776,0.08-0.996,0.242
		c-0.088,0.059-0.132,0.378-0.132,0.959v4.819c0,0.166-0.068,0.249-0.205,0.249h-0.791c-0.142,0-0.213-0.083-0.213-0.249v-4.893
		c0-0.464-0.102-0.776-0.307-0.938c-0.172-0.127-0.484-0.19-0.938-0.19h-0.455c-0.518,0-0.859,0.021-1.025,0.066
		c-0.059,0.02-0.088,0.112-0.088,0.277v5.677c0,0.166-0.07,0.249-0.212,0.249h-0.784c-0.142,0-0.212-0.083-0.212-0.249v-6.481
		c0-0.122,0.004-0.192,0.011-0.209c0.008-0.018,0.06-0.06,0.158-0.129c0.077-0.059,0.3-0.117,0.666-0.176
		c0.41-0.062,0.82-0.095,1.23-0.095h0.812c0.889,0,1.526,0.335,1.912,1.003c0.415-0.668,0.952-1.003,1.611-1.003h0.85
		c1.436,0,2.153,0.723,2.153,2.168V75.855z"/>
	<path fill="#939598" d="M242.507,75.621c0,0.146-0.096,0.247-0.285,0.3l-0.345,0.088c-0.356,0.094-0.54,0.14-0.55,0.14
		c-0.347,0-0.62-0.273-0.82-0.82c-0.166,0.171-0.365,0.34-0.6,0.505c-0.338,0.234-0.77,0.352-1.297,0.352h-0.293
		c-1.421,0-2.131-0.69-2.131-2.072v-0.314c0-1.393,0.725-2.088,2.175-2.088h0.659c0.63,0,1.115,0.2,1.457,0.601l0.074-1.23
		c0.023-0.479-0.105-0.811-0.389-0.996c-0.254-0.166-0.693-0.249-1.318-0.249s-1.226,0.049-1.802,0.146
		c-0.166,0.029-0.249-0.046-0.249-0.227v-0.439c0-0.133,0.098-0.223,0.293-0.271c0.605-0.166,1.299-0.249,2.08-0.249
		c0.752,0,1.318,0.146,1.699,0.439c0.522,0.4,0.783,1.12,0.783,2.161v3.164c0,0.395,0.112,0.593,0.338,0.593h0.285
		c0.156,0,0.234,0.076,0.234,0.228V75.621z M240.493,74.543V73.27c0-0.225-0.062-0.379-0.184-0.462
		c-0.151-0.107-0.459-0.161-0.923-0.161h-1.099c-0.386,0-0.652,0.091-0.799,0.271c-0.122,0.151-0.183,0.415-0.183,0.791v0.432
		c0,0.679,0.381,1.018,1.143,1.018h0.557c0.615,0,1.05-0.088,1.304-0.264C240.432,74.813,240.493,74.696,240.493,74.543z"/>
	<path fill="#939598" d="M249.948,75.598c0,0.133-0.1,0.232-0.3,0.301l-0.352,0.109c-0.288,0.098-0.486,0.146-0.593,0.146
		c-0.293,0-0.545-0.241-0.755-0.725c-0.386,0.474-0.872,0.711-1.458,0.711h-0.527c-1.694,0-2.541-0.874-2.541-2.623v-2.227
		c0-0.805,0.239-1.428,0.718-1.867c0.435-0.4,1.008-0.601,1.722-0.601h0.703c0.624,0,1.071,0.193,1.34,0.579v-3.494
		c0-0.166,0.07-0.249,0.213-0.249h0.769c0.137,0,0.205,0.083,0.205,0.249v8.65c0,0.381,0.112,0.57,0.337,0.57h0.293
		c0.151,0,0.227,0.076,0.227,0.228V75.598z M247.935,74.449V70.42c0-0.195-0.062-0.337-0.184-0.425
		c-0.176-0.122-0.388-0.183-0.637-0.183h-1.377c-0.4,0-0.701,0.178-0.9,0.534c-0.162,0.273-0.242,0.599-0.242,0.974v2.293
		c0,0.986,0.415,1.479,1.245,1.479h0.85c0.425,0,0.778-0.081,1.062-0.241C247.873,74.784,247.935,74.649,247.935,74.449z"/>
	<path fill="#939598" d="M256.401,72.831c0,0.16-0.098,0.241-0.293,0.241h-4.021v0.586c0,0.552,0.153,0.936,0.462,1.149
		c0.264,0.191,0.695,0.286,1.296,0.286c0.454,0,1.081-0.052,1.882-0.153c0.205-0.024,0.309,0.049,0.309,0.219v0.418
		c0,0.107-0.084,0.19-0.25,0.249c-0.625,0.225-1.301,0.337-2.028,0.337c-0.947,0-1.65-0.246-2.109-0.74
		c-0.518-0.546-0.776-1.525-0.776-2.937c0-1.665,0.352-2.747,1.055-3.245c0.425-0.297,0.996-0.446,1.714-0.446
		c0.762,0,1.348,0.145,1.758,0.433c0.356,0.254,0.608,0.549,0.755,0.886c0.165,0.381,0.248,0.913,0.248,1.597V72.831z
		 M255.216,70.962c0-0.415-0.123-0.708-0.367-0.879s-0.646-0.257-1.208-0.257c-0.586,0-0.991,0.092-1.216,0.275
		c-0.225,0.183-0.337,0.504-0.337,0.963v1.084h3.128V70.962z"/>
	<path fill="#939598" d="M266.97,72.831c0,0.16-0.098,0.241-0.293,0.241h-4.021v0.586c0,0.552,0.153,0.936,0.462,1.149
		c0.264,0.191,0.695,0.286,1.296,0.286c0.454,0,1.081-0.052,1.882-0.153c0.205-0.024,0.309,0.049,0.309,0.219v0.418
		c0,0.107-0.084,0.19-0.25,0.249c-0.625,0.225-1.301,0.337-2.028,0.337c-0.947,0-1.65-0.246-2.109-0.74
		c-0.518-0.546-0.776-1.525-0.776-2.937c0-1.665,0.352-2.747,1.055-3.245c0.425-0.297,0.996-0.446,1.714-0.446
		c0.762,0,1.348,0.145,1.758,0.433c0.356,0.254,0.608,0.549,0.755,0.886c0.165,0.381,0.248,0.913,0.248,1.597V72.831z
		 M265.784,70.962c0-0.415-0.123-0.708-0.367-0.879s-0.646-0.257-1.208-0.257c-0.586,0-0.991,0.092-1.216,0.275
		c-0.225,0.183-0.337,0.504-0.337,0.963v1.084h3.128V70.962z"/>
	<path fill="#939598" d="M274.616,75.621c0,0.146-0.096,0.247-0.285,0.3l-0.345,0.088c-0.356,0.094-0.54,0.14-0.55,0.14
		c-0.347,0-0.62-0.273-0.82-0.82c-0.166,0.171-0.365,0.34-0.6,0.505c-0.338,0.234-0.77,0.352-1.297,0.352h-0.293
		c-1.421,0-2.131-0.69-2.131-2.072v-0.314c0-1.393,0.725-2.088,2.175-2.088h0.659c0.63,0,1.115,0.2,1.457,0.601l0.074-1.23
		c0.023-0.479-0.105-0.811-0.389-0.996c-0.254-0.166-0.693-0.249-1.318-0.249s-1.226,0.049-1.802,0.146
		c-0.166,0.029-0.249-0.046-0.249-0.227v-0.439c0-0.133,0.098-0.223,0.293-0.271c0.605-0.166,1.299-0.249,2.08-0.249
		c0.752,0,1.318,0.146,1.699,0.439c0.522,0.4,0.783,1.12,0.783,2.161v3.164c0,0.395,0.112,0.593,0.338,0.593h0.285
		c0.156,0,0.234,0.076,0.234,0.228V75.621z M272.603,74.543V73.27c0-0.225-0.062-0.379-0.184-0.462
		c-0.151-0.107-0.459-0.161-0.923-0.161h-1.099c-0.386,0-0.652,0.091-0.799,0.271c-0.122,0.151-0.183,0.415-0.183,0.791v0.432
		c0,0.679,0.381,1.018,1.143,1.018h0.557c0.615,0,1.05-0.088,1.304-0.264C272.541,74.813,272.603,74.696,272.603,74.543z"/>
	<path fill="#939598" d="M280.433,74.039c0,0.703-0.234,1.243-0.703,1.618c-0.431,0.352-1.075,0.527-1.934,0.527
		c-0.768,0-1.39-0.09-1.868-0.271c-0.19-0.068-0.286-0.158-0.286-0.271v-0.455c0-0.155,0.11-0.212,0.33-0.168
		c0.43,0.088,0.998,0.132,1.707,0.132c0.561,0,0.91-0.02,1.047-0.059c0.342-0.098,0.513-0.345,0.513-0.739v-0.711
		c0-0.371-0.112-0.61-0.337-0.718c-0.137-0.068-0.408-0.103-0.812-0.103h-0.645c-0.665,0-1.158-0.166-1.48-0.498
		c-0.288-0.298-0.432-0.796-0.432-1.494c0-0.659,0.251-1.193,0.754-1.604c0.356-0.288,0.906-0.433,1.648-0.433
		c0.552,0,1.123,0.065,1.714,0.198c0.195,0.039,0.293,0.129,0.293,0.271v0.425c0,0.146-0.112,0.203-0.337,0.168
		c-0.283-0.043-0.887-0.065-1.809-0.065c-0.439,0-0.74,0.059-0.901,0.176c-0.137,0.103-0.205,0.283-0.205,0.542v0.586
		c0,0.288,0.049,0.483,0.146,0.586c0.132,0.137,0.407,0.205,0.827,0.205l0.439-0.008c0.845,0,1.444,0.172,1.799,0.514
		C280.255,72.733,280.433,73.282,280.433,74.039z"/>
	<path fill="#939598" d="M287.8,69.256l-2.52,7.764c-0.464,1.439-1.245,2.16-2.344,2.16c-0.234,0-0.501-0.051-0.799-0.154
		c-0.072-0.029-0.109-0.107-0.109-0.234v-0.461c0-0.103,0.096-0.146,0.285-0.132c0.405,0.024,0.562,0.036,0.469,0.036
		c0.654,0,1.113-0.417,1.377-1.252l0.338-1.092h-0.462c-0.186,0-0.315-0.106-0.388-0.322l-2.213-6.312
		c-0.083-0.234-0.024-0.352,0.176-0.352h0.836c0.126,0,0.214,0.072,0.264,0.219l1.94,5.934h0.103l1.809-5.947
		c0.039-0.137,0.145-0.205,0.315-0.205h0.739C287.812,68.905,287.873,69.022,287.8,69.256z"/>
</g>
</svg>
