<?xml version="1.0" encoding="utf-8"?>
<!-- Generator: Adobe Illustrator 16.0.4, SVG Export Plug-In . SVG Version: 6.00 Build 0)  -->
<!DOCTYPE svg PUBLIC "-//W3C//DTD SVG 1.1//EN" "http://www.w3.org/Graphics/SVG/1.1/DTD/svg11.dtd">
<svg version="1.1" id="Layer_1" xmlns="http://www.w3.org/2000/svg" xmlns:xlink="http://www.w3.org/1999/xlink" x="0px" y="0px"
	 width="204.667px" height="144px" viewBox="0 0 204.667 144" enable-background="new 0 0 204.667 144" xml:space="preserve">
<g>
	<g>
		<path fill="#F47B75" d="M110.563,18.365l-1.432-2.285l-6.166-10.681c-0.762-1.32-2.009-1.32-2.771,0L53.558,86.175
			c-0.762,1.32-0.139,2.4,1.386,2.4h15.149L110.563,18.365z"/>
	</g>
	<g>
		<polygon fill="#F47B75" points="121.44,42.195 122.715,39.769 112.823,22.214 111.396,24.797 74.899,88.575 94.697,88.575 		"/>
	</g>
	<g>
		<g>
			<polygon fill="#F47B75" points="133.16,62.494 134.532,60.06 125.041,43.745 123.701,46.109 99.254,88.575 118.038,88.575 			"/>
		</g>
		<g>
			<path fill="#F47B75" d="M122.804,88.575h25.41c1.525,0,2.148-1.08,1.387-2.4l-12.77-22.163l-1.41,2.397L122.804,88.575z"/>
		</g>
	</g>
</g>
<g>
	<rect x="-8.805" y="96.168" fill="none" width="219.645" height="66.676"/>
	<path fill="#939598" d="M20.624,114.22c0,2.461-0.929,4.25-2.786,5.367c-1.265,0.763-3.298,1.145-6.101,1.145
		c-2.153,0-4.016-0.154-5.588-0.461c-0.672-0.137-1.008-0.456-1.008-0.957v-0.855c0-0.387,0.387-0.552,1.162-0.495
		c1.812,0.137,3.703,0.205,5.674,0.205c2.165,0,3.606-0.177,4.324-0.53c0.786-0.398,1.179-1.23,1.179-2.494v-1.624
		c0-1.595-0.319-2.614-0.957-3.06c-0.513-0.342-1.675-0.512-3.486-0.512h-2.41c-2.165,0-3.708-0.484-4.631-1.453
		c-0.877-0.911-1.316-2.358-1.316-4.341c0-2.312,0.757-4.005,2.273-5.075c0.74-0.524,1.612-0.866,2.615-1.025
		c0.638-0.104,1.658-0.154,3.059-0.154c1.994,0,3.748,0.148,5.264,0.444c0.661,0.126,0.991,0.394,0.991,0.804v0.905
		c0,0.251-0.097,0.404-0.291,0.462c-0.103,0.022-0.388,0.033-0.854,0.033c-0.376,0-1.219,0-2.529,0
		c-1.413-0.011-2.433-0.017-3.059-0.017c-1.857,0-3.062,0.188-3.614,0.563c-0.553,0.377-0.829,1.162-0.829,2.359v0.684
		c0,1.4,0.159,2.278,0.479,2.631c0.444,0.49,1.561,0.735,3.35,0.735h1.35c2.974,0,5.007,0.521,6.101,1.563
		C20.077,110.11,20.624,111.827,20.624,114.22z"/>
	<path fill="#939598" d="M37.389,112.888c0,0.375-0.228,0.563-0.684,0.563h-9.382v1.367c0,1.288,0.359,2.182,1.077,2.683
		c0.615,0.445,1.624,0.667,3.025,0.667c1.06,0,2.523-0.12,4.392-0.358c0.479-0.058,0.718,0.113,0.718,0.512v0.975
		c0,0.251-0.194,0.444-0.581,0.581c-1.458,0.524-3.037,0.786-4.734,0.786c-2.21,0-3.851-0.575-4.922-1.727
		c-1.208-1.275-1.812-3.56-1.812-6.853c0-3.885,0.82-6.409,2.461-7.571c0.991-0.694,2.324-1.042,3.999-1.042
		c1.777,0,3.145,0.336,4.102,1.009c0.832,0.592,1.418,1.281,1.76,2.067c0.387,0.889,0.581,2.131,0.581,3.726V112.888z
		 M34.62,108.529c0-0.968-0.285-1.651-0.854-2.051c-0.57-0.398-1.51-0.599-2.82-0.599c-1.367,0-2.313,0.214-2.837,0.642
		c-0.524,0.427-0.786,1.177-0.786,2.247v2.529h7.297V108.529z"/>
	<path fill="#939598" d="M55.025,119.945c0,0.388-0.166,0.581-0.496,0.581h-1.846c-0.319,0-0.479-0.193-0.479-0.581v-11.211
		c0-1.025-0.271-1.754-0.812-2.188c-0.541-0.433-1.416-0.649-2.623-0.649h-1.914c-1.117,0-1.903,0.062-2.358,0.188
		c-0.148,0.035-0.222,0.251-0.222,0.65v13.21c0,0.388-0.16,0.581-0.479,0.581h-1.846c-0.331,0-0.496-0.193-0.496-0.581v-15.124
		c0-0.297,0.009-0.462,0.025-0.496c0.018-0.034,0.14-0.131,0.368-0.291c0.171-0.125,0.774-0.262,1.812-0.41
		c1.105-0.147,2.147-0.222,3.127-0.222h2.375c3.908,0,5.862,1.846,5.862,5.537V119.945z"/>
	<path fill="#939598" d="M66.903,119.587c0,0.25-0.137,0.438-0.41,0.563c-0.866,0.41-1.715,0.615-2.546,0.615
		c-2.45,0-3.674-1.47-3.674-4.409v-10.322h-1.88c-0.319,0-0.479-0.171-0.479-0.513v-0.905c0-0.229,0.12-0.37,0.359-0.428
		l0.906-0.205c0.41-0.091,0.678-0.205,0.803-0.342c0.193-0.205,0.291-0.564,0.291-1.076v-2.393c0-0.297,0.154-0.445,0.461-0.445
		h1.76c0.319,0,0.479,0.172,0.479,0.514v3.469h3.076c0.319,0,0.479,0.171,0.479,0.513v1.367c0,0.297-0.154,0.444-0.461,0.444h-3.093
		v10.288c0,0.764,0.108,1.299,0.325,1.606c0.262,0.388,0.757,0.581,1.487,0.581c0.581,0,1.094-0.079,1.538-0.239
		c0.125-0.034,0.228-0.051,0.308-0.051c0.182,0.011,0.273,0.131,0.273,0.358V119.587z"/>
	<path fill="#939598" d="M78.558,106.153c0,0.445-0.194,0.57-0.581,0.377c-0.752-0.388-1.499-0.582-2.239-0.582
		c-1.413,0-2.262,0.137-2.546,0.41c-0.183,0.172-0.273,0.49-0.273,0.957v12.63c0,0.388-0.166,0.581-0.496,0.581h-1.846
		c-0.331,0-0.496-0.193-0.496-0.581v-11.331c0-1.72,0.518-3.008,1.555-3.861c1.116-0.924,2.746-1.385,4.888-1.385
		c0.638,0,1.173,0.114,1.606,0.342c0.285,0.137,0.427,0.354,0.427,0.649V106.153z"/>
	<path fill="#939598" d="M95.033,104.548l-5.879,18.115c-1.083,3.36-2.905,5.041-5.469,5.041c-0.547,0-1.168-0.119-1.863-0.359
		c-0.171-0.068-0.256-0.25-0.256-0.547v-1.076c0-0.239,0.222-0.342,0.667-0.308c0.945,0.057,1.31,0.085,1.094,0.085
		c1.526,0,2.598-0.974,3.213-2.922l0.786-2.547h-1.077c-0.433,0-0.735-0.25-0.906-0.752l-5.161-14.73
		c-0.194-0.547-0.057-0.82,0.41-0.82h1.948c0.296,0,0.501,0.17,0.615,0.512l4.529,13.844h0.239l4.221-13.877
		c0.091-0.319,0.336-0.479,0.735-0.479h1.726C95.061,103.728,95.204,104.001,95.033,104.548z"/>
	<path fill="#939598" d="M121.864,99.916c0,0.502-0.233,0.752-0.701,0.752h-5.947v19.209c0,0.434-0.233,0.649-0.7,0.649h-1.538
		c-0.468,0-0.701-0.25-0.701-0.752v-19.106h-6.033c-0.467,0-0.701-0.25-0.701-0.752v-1.128c0-0.182,0.017-0.324,0.051-0.428
		c0.068-0.182,0.285-0.273,0.649-0.273h14.919c0.377,0,0.599,0.109,0.667,0.325c0.022,0.08,0.034,0.205,0.034,0.376V99.916z"/>
	<path fill="#939598" d="M137.74,112.888c0,0.375-0.228,0.563-0.684,0.563h-9.382v1.367c0,1.288,0.358,2.182,1.077,2.683
		c0.615,0.445,1.623,0.667,3.024,0.667c1.06,0,2.523-0.12,4.392-0.358c0.479-0.058,0.719,0.113,0.719,0.512v0.975
		c0,0.251-0.194,0.444-0.582,0.581c-1.458,0.524-3.036,0.786-4.733,0.786c-2.211,0-3.852-0.575-4.922-1.727
		c-1.208-1.275-1.812-3.56-1.812-6.853c0-3.885,0.82-6.409,2.461-7.571c0.991-0.694,2.324-1.042,3.999-1.042
		c1.777,0,3.145,0.336,4.102,1.009c0.831,0.592,1.419,1.281,1.761,2.067c0.387,0.889,0.58,2.131,0.58,3.726V112.888z
		 M134.973,108.529c0-0.968-0.285-1.651-0.855-2.051c-0.569-0.398-1.51-0.599-2.819-0.599c-1.367,0-2.313,0.214-2.837,0.642
		c-0.524,0.427-0.786,1.177-0.786,2.247v2.529h7.298V108.529z"/>
	<path fill="#939598" d="M152.66,115.707c0,1.641-0.547,2.899-1.641,3.776c-1.003,0.82-2.507,1.23-4.512,1.23
		c-1.789,0-3.242-0.21-4.358-0.632c-0.444-0.159-0.667-0.37-0.667-0.632v-1.061c0-0.364,0.257-0.495,0.77-0.393
		c1.002,0.205,2.33,0.308,3.982,0.308c1.31,0,2.124-0.045,2.443-0.137c0.797-0.228,1.196-0.804,1.196-1.726v-1.658
		c0-0.865-0.263-1.424-0.786-1.675c-0.319-0.159-0.951-0.239-1.896-0.239h-1.504c-1.55,0-2.701-0.387-3.453-1.162
		c-0.672-0.694-1.008-1.856-1.008-3.486c0-1.538,0.587-2.785,1.76-3.742c0.832-0.673,2.113-1.009,3.846-1.009
		c1.287,0,2.62,0.153,3.999,0.462c0.455,0.091,0.684,0.302,0.684,0.632v0.991c0,0.342-0.263,0.473-0.786,0.393
		c-0.661-0.102-2.068-0.153-4.221-0.153c-1.025,0-1.727,0.137-2.103,0.41c-0.319,0.239-0.479,0.661-0.479,1.265v1.367
		c0,0.673,0.113,1.128,0.342,1.367c0.308,0.319,0.951,0.479,1.931,0.479l1.025-0.018c1.972,0,3.37,0.399,4.196,1.197
		C152.246,112.659,152.66,113.941,152.66,115.707z"/>
	<path fill="#939598" d="M163.956,119.587c0,0.25-0.137,0.438-0.41,0.563c-0.865,0.41-1.715,0.615-2.546,0.615
		c-2.45,0-3.675-1.47-3.675-4.409v-10.322h-1.879c-0.319,0-0.479-0.171-0.479-0.513v-0.905c0-0.229,0.119-0.37,0.358-0.428
		l0.905-0.205c0.41-0.091,0.678-0.205,0.804-0.342c0.193-0.205,0.29-0.564,0.29-1.076v-2.393c0-0.297,0.154-0.445,0.462-0.445h1.761
		c0.318,0,0.479,0.172,0.479,0.514v3.469h3.076c0.318,0,0.479,0.171,0.479,0.513v1.367c0,0.297-0.154,0.444-0.462,0.444h-3.093
		v10.288c0,0.764,0.107,1.299,0.324,1.606c0.262,0.388,0.758,0.581,1.486,0.581c0.582,0,1.094-0.079,1.539-0.239
		c0.125-0.034,0.228-0.051,0.307-0.051c0.183,0.011,0.273,0.131,0.273,0.358V119.587z"/>
	<path fill="#939598" d="M170.057,120.014c0,0.342-0.159,0.513-0.479,0.513h-1.76c-0.319,0-0.479-0.147-0.479-0.444V96.669
		c0-0.342,0.159-0.513,0.479-0.513h1.76c0.319,0,0.479,0.148,0.479,0.444V120.014z M181.131,119.979
		c0.114,0.137,0.148,0.263,0.104,0.376c-0.046,0.114-0.154,0.171-0.325,0.171h-2.222c-0.319,0-0.615-0.154-0.889-0.461l-7.229-8.066
		c-0.251-0.297-0.24-0.587,0.033-0.872l6.717-7.024c0.239-0.25,0.547-0.375,0.923-0.375h1.966c0.17,0,0.273,0.085,0.307,0.256
		c0.046,0.16,0.012,0.297-0.102,0.41l-6.904,7.127L181.131,119.979z"/>
	<path fill="#939598" d="M186.652,120.014c0,0.342-0.16,0.513-0.479,0.513h-1.761c-0.319,0-0.479-0.147-0.479-0.444v-15.843
		c0-0.342,0.159-0.512,0.479-0.512h1.761c0.318,0,0.479,0.147,0.479,0.443V120.014z M186.652,100.821
		c0,0.342-0.16,0.514-0.479,0.514h-1.761c-0.308,0-0.462-0.148-0.462-0.445v-1.846c0-0.342,0.16-0.512,0.479-0.512h1.761
		c0.308,0,0.462,0.147,0.462,0.443V100.821z"/>
	<path fill="#939598" d="M198.631,119.587c0,0.25-0.137,0.438-0.41,0.563c-0.865,0.41-1.715,0.615-2.546,0.615
		c-2.45,0-3.675-1.47-3.675-4.409v-10.322h-1.879c-0.319,0-0.479-0.171-0.479-0.513v-0.905c0-0.229,0.119-0.37,0.358-0.428
		l0.905-0.205c0.41-0.091,0.678-0.205,0.804-0.342c0.193-0.205,0.29-0.564,0.29-1.076v-2.393c0-0.297,0.154-0.445,0.462-0.445h1.761
		c0.318,0,0.479,0.172,0.479,0.514v3.469h3.076c0.318,0,0.479,0.171,0.479,0.513v1.367c0,0.297-0.154,0.444-0.462,0.444h-3.093
		v10.288c0,0.764,0.107,1.299,0.324,1.606c0.262,0.388,0.758,0.581,1.486,0.581c0.582,0,1.094-0.079,1.539-0.239
		c0.125-0.034,0.228-0.051,0.307-0.051c0.183,0.011,0.273,0.131,0.273,0.358V119.587z"/>
	<path fill="#939598" d="M14.057,129.693c0,0.215-0.1,0.322-0.3,0.322h-2.549v8.232c0,0.186-0.1,0.278-0.3,0.278h-0.659
		c-0.2,0-0.3-0.107-0.3-0.322v-8.188H7.363c-0.2,0-0.3-0.107-0.3-0.322v-0.483c0-0.078,0.007-0.139,0.022-0.184
		c0.029-0.077,0.122-0.117,0.278-0.117h6.394c0.161,0,0.256,0.047,0.286,0.14c0.01,0.034,0.015,0.088,0.015,0.161V129.693z"/>
	<path fill="#939598" d="M20.861,135.253c0,0.16-0.098,0.241-0.293,0.241h-4.021v0.586c0,0.552,0.154,0.936,0.461,1.149
		c0.264,0.191,0.696,0.286,1.296,0.286c0.454,0,1.082-0.052,1.882-0.153c0.205-0.024,0.308,0.049,0.308,0.219v0.418
		c0,0.107-0.083,0.19-0.249,0.249c-0.625,0.225-1.301,0.337-2.029,0.337c-0.947,0-1.65-0.246-2.109-0.74
		c-0.518-0.546-0.776-1.525-0.776-2.937c0-1.665,0.352-2.747,1.055-3.245c0.425-0.297,0.996-0.446,1.714-0.446
		c0.762,0,1.348,0.145,1.758,0.433c0.356,0.254,0.608,0.549,0.754,0.886c0.166,0.381,0.249,0.913,0.249,1.597V135.253z
		 M19.675,133.385c0-0.415-0.122-0.708-0.366-0.879s-0.647-0.257-1.208-0.257c-0.586,0-0.991,0.092-1.216,0.275
		c-0.225,0.183-0.337,0.504-0.337,0.963v1.084h3.127V133.385z"/>
	<path fill="#939598" d="M27.255,136.461c0,0.703-0.234,1.243-0.703,1.618c-0.43,0.352-1.074,0.527-1.934,0.527
		c-0.767,0-1.389-0.09-1.868-0.271c-0.19-0.068-0.286-0.158-0.286-0.271v-0.455c0-0.155,0.11-0.212,0.33-0.168
		c0.43,0.088,0.999,0.132,1.707,0.132c0.562,0,0.911-0.02,1.047-0.059c0.342-0.098,0.513-0.345,0.513-0.739v-0.711
		c0-0.371-0.112-0.61-0.337-0.718c-0.137-0.068-0.408-0.103-0.813-0.103h-0.645c-0.664,0-1.157-0.166-1.479-0.498
		c-0.288-0.298-0.432-0.796-0.432-1.494c0-0.659,0.251-1.193,0.754-1.604c0.356-0.288,0.906-0.433,1.648-0.433
		c0.552,0,1.123,0.065,1.714,0.198c0.195,0.039,0.293,0.129,0.293,0.271v0.425c0,0.146-0.112,0.203-0.337,0.168
		c-0.283-0.043-0.886-0.065-1.809-0.065c-0.439,0-0.74,0.059-0.901,0.176c-0.137,0.103-0.205,0.283-0.205,0.542v0.586
		c0,0.288,0.049,0.483,0.146,0.586c0.132,0.137,0.408,0.205,0.828,0.205l0.439-0.008c0.845,0,1.444,0.172,1.798,0.514
		C27.078,135.155,27.255,135.704,27.255,136.461z"/>
	<path fill="#939598" d="M32.097,138.124c0,0.107-0.059,0.188-0.176,0.241c-0.371,0.176-0.735,0.264-1.091,0.264
		c-1.05,0-1.575-0.63-1.575-1.89v-4.424h-0.806c-0.137,0-0.205-0.073-0.205-0.22v-0.388c0-0.098,0.051-0.159,0.154-0.184
		l0.388-0.088c0.176-0.039,0.291-0.088,0.344-0.146c0.083-0.088,0.125-0.242,0.125-0.461v-1.025c0-0.127,0.066-0.191,0.198-0.191
		h0.754c0.137,0,0.205,0.074,0.205,0.221v1.486h1.318c0.137,0,0.205,0.073,0.205,0.22v0.586c0,0.127-0.066,0.19-0.198,0.19h-1.326
		v4.409c0,0.327,0.046,0.557,0.139,0.688c0.112,0.166,0.325,0.249,0.637,0.249c0.249,0,0.469-0.034,0.659-0.103
		c0.054-0.015,0.098-0.021,0.132-0.021c0.078,0.005,0.117,0.056,0.117,0.153V138.124z"/>
	<path fill="#939598" d="M34.667,138.307c0,0.146-0.068,0.22-0.205,0.22h-0.754c-0.137,0-0.205-0.063-0.205-0.19v-6.79
		c0-0.146,0.068-0.219,0.205-0.219h0.754c0.137,0,0.205,0.063,0.205,0.189V138.307z M34.667,130.081
		c0,0.146-0.068,0.221-0.205,0.221h-0.754c-0.132,0-0.198-0.063-0.198-0.191v-0.791c0-0.146,0.068-0.219,0.205-0.219h0.754
		c0.132,0,0.198,0.063,0.198,0.189V130.081z"/>
	<path fill="#939598" d="M42.446,138.277c0,0.166-0.071,0.249-0.212,0.249h-0.791c-0.137,0-0.205-0.083-0.205-0.249v-4.805
		c0-0.439-0.116-0.752-0.348-0.938s-0.606-0.278-1.124-0.278h-0.82c-0.479,0-0.815,0.027-1.011,0.08
		c-0.063,0.016-0.095,0.108-0.095,0.279v5.661c0,0.166-0.068,0.249-0.205,0.249h-0.791c-0.142,0-0.212-0.083-0.212-0.249v-6.481
		c0-0.127,0.004-0.198,0.011-0.213c0.008-0.015,0.06-0.056,0.158-0.125c0.073-0.053,0.332-0.111,0.776-0.176
		c0.474-0.062,0.92-0.095,1.34-0.095h1.018c1.675,0,2.512,0.791,2.512,2.373V138.277z"/>
	<path fill="#939598" d="M49.785,138.658c0,0.874-0.271,1.592-0.813,2.153c-0.435,0.444-1.094,0.666-1.978,0.666
		c-0.791,0-1.511-0.112-2.161-0.336c-0.195-0.064-0.293-0.154-0.293-0.271v-0.425c0-0.176,0.112-0.234,0.337-0.176
		c0.557,0.146,1.226,0.22,2.007,0.22c1.221,0,1.809-0.518,1.765-1.553l-0.051-1.121c-0.225,0.264-0.427,0.447-0.608,0.55
		c-0.269,0.151-0.613,0.228-1.033,0.228h-0.403c-0.776,0-1.377-0.217-1.802-0.648c-0.425-0.433-0.637-1.039-0.637-1.82v-2.183
		c0-0.884,0.256-1.569,0.769-2.058c0.483-0.459,1.133-0.689,1.948-0.689h0.894c1.074,0,1.704,0.069,1.89,0.205
		c0.098,0.069,0.15,0.111,0.158,0.129c0.007,0.017,0.011,0.087,0.011,0.209V138.658z M48.627,136.819v-4.248
		c0-0.165-0.027-0.258-0.081-0.277c-0.156-0.045-0.498-0.066-1.025-0.066h-0.842c-0.928,0-1.392,0.493-1.392,1.479v2.505
		c0,0.928,0.415,1.392,1.245,1.392h0.732c0.552,0,0.945-0.117,1.179-0.352C48.566,137.125,48.627,136.981,48.627,136.819z"/>
	<path fill="#939598" d="M60.954,131.679l-2.52,7.764c-0.464,1.439-1.245,2.16-2.344,2.16c-0.234,0-0.5-0.051-0.798-0.154
		c-0.073-0.029-0.11-0.107-0.11-0.234v-0.461c0-0.103,0.095-0.146,0.286-0.132c0.405,0.024,0.562,0.036,0.469,0.036
		c0.654,0,1.113-0.417,1.377-1.252l0.337-1.092h-0.461c-0.186,0-0.315-0.106-0.388-0.322l-2.212-6.312
		c-0.083-0.234-0.024-0.352,0.176-0.352H55.6c0.127,0,0.215,0.072,0.264,0.219l1.941,5.934h0.103l1.809-5.947
		c0.039-0.137,0.144-0.205,0.315-0.205h0.74C60.966,131.327,61.027,131.444,60.954,131.679z"/>
	<path fill="#939598" d="M68.388,134.791c0,1.206-0.22,2.112-0.659,2.718c-0.542,0.746-1.377,1.12-2.505,1.12h-0.015
		c-1.211,0-2.068-0.361-2.571-1.084c-0.405-0.581-0.608-1.455-0.608-2.622c0-1.143,0.168-1.989,0.505-2.541
		c0.503-0.815,1.394-1.224,2.673-1.224h0.015c1.289,0,2.175,0.388,2.659,1.165C68.22,132.87,68.388,133.692,68.388,134.791z
		 M67.172,135.509v-1.238c0-1.361-0.549-2.043-1.648-2.043h-0.71c-1.03,0-1.545,0.662-1.545,1.984v1.312
		c0,1.362,0.554,2.044,1.663,2.044h0.593C66.623,137.567,67.172,136.881,67.172,135.509z"/>
	<path fill="#939598" d="M76.459,138.021c0,0.133-0.1,0.232-0.3,0.301l-0.352,0.109c-0.288,0.098-0.461,0.146-0.52,0.146
		c-0.342,0-0.618-0.241-0.828-0.725c-0.366,0.508-0.906,0.762-1.619,0.762h-0.491c-1.606,0-2.41-0.83-2.41-2.49v-4.541
		c0-0.161,0.071-0.242,0.212-0.242h0.791c0.142,0,0.212,0.081,0.212,0.242v4.549c0,0.552,0.115,0.93,0.344,1.135
		c0.205,0.181,0.574,0.271,1.106,0.271h0.388c0.615,0,1.038-0.096,1.267-0.286c0.088-0.068,0.132-0.176,0.132-0.322v-5.347
		c0-0.161,0.071-0.242,0.212-0.242h0.784c0.142,0,0.212,0.081,0.212,0.242v5.398c0,0.381,0.112,0.57,0.337,0.57h0.286
		c0.156,0,0.234,0.076,0.234,0.228V138.021z"/>
	<path fill="#939598" d="M81.213,132.366c0,0.191-0.083,0.245-0.249,0.162c-0.322-0.166-0.642-0.25-0.959-0.25
		c-0.605,0-0.969,0.059-1.091,0.176c-0.078,0.074-0.117,0.211-0.117,0.41v5.413c0,0.166-0.071,0.249-0.212,0.249h-0.791
		c-0.142,0-0.212-0.083-0.212-0.249v-4.856c0-0.736,0.222-1.289,0.667-1.654c0.479-0.396,1.177-0.594,2.095-0.594
		c0.273,0,0.503,0.049,0.688,0.146c0.122,0.059,0.183,0.151,0.183,0.278V132.366z"/>
	<path fill="#939598" d="M89.709,132.366c0,0.191-0.083,0.245-0.249,0.162c-0.322-0.166-0.642-0.25-0.959-0.25
		c-0.605,0-0.969,0.059-1.091,0.176c-0.078,0.074-0.117,0.211-0.117,0.41v5.413c0,0.166-0.071,0.249-0.212,0.249h-0.791
		c-0.142,0-0.212-0.083-0.212-0.249v-4.856c0-0.736,0.222-1.289,0.667-1.654c0.479-0.396,1.177-0.594,2.095-0.594
		c0.273,0,0.503,0.049,0.688,0.146c0.122,0.059,0.183,0.151,0.183,0.278V132.366z"/>
	<path fill="#939598" d="M96.352,135.253c0,0.16-0.098,0.241-0.293,0.241h-4.021v0.586c0,0.552,0.154,0.936,0.461,1.149
		c0.264,0.191,0.696,0.286,1.296,0.286c0.454,0,1.082-0.052,1.882-0.153c0.205-0.024,0.308,0.049,0.308,0.219v0.418
		c0,0.107-0.083,0.19-0.249,0.249c-0.625,0.225-1.301,0.337-2.029,0.337c-0.947,0-1.65-0.246-2.109-0.74
		c-0.518-0.546-0.776-1.525-0.776-2.937c0-1.665,0.352-2.747,1.055-3.245c0.425-0.297,0.996-0.446,1.714-0.446
		c0.762,0,1.348,0.145,1.758,0.433c0.356,0.254,0.608,0.549,0.754,0.886c0.166,0.381,0.249,0.913,0.249,1.597V135.253z
		 M95.166,133.385c0-0.415-0.122-0.708-0.366-0.879s-0.647-0.257-1.208-0.257c-0.586,0-0.991,0.092-1.216,0.275
		c-0.225,0.183-0.337,0.504-0.337,0.963v1.084h3.127V133.385z"/>
	<path fill="#939598" d="M103.808,135.992c0,0.762-0.256,1.384-0.769,1.868c-0.493,0.469-1.113,0.703-1.86,0.703h-0.322
		c-0.444,0-0.771-0.052-0.981-0.154c-0.176-0.088-0.359-0.266-0.549-0.535v3.436c0,0.161-0.068,0.242-0.205,0.242h-0.769
		c-0.142,0-0.212-0.081-0.212-0.242v-9.58c0-0.137,0.071-0.229,0.212-0.278c0.425-0.156,1.147-0.234,2.168-0.234h0.645
		c0.781,0,1.401,0.198,1.86,0.593c0.522,0.45,0.784,1.113,0.784,1.992V135.992z M102.636,135.985v-2.19
		c0-1.021-0.476-1.53-1.428-1.53h-1.003c-0.605,0-0.908,0.08-0.908,0.241v4.372c0,0.201,0.061,0.345,0.183,0.433
		c0.259,0.176,0.569,0.264,0.93,0.264h0.798c0.527,0,0.916-0.19,1.165-0.571C102.548,136.725,102.636,136.386,102.636,135.985z"/>
	<path fill="#939598" d="M111.58,134.791c0,1.206-0.221,2.112-0.661,2.718c-0.541,0.746-1.377,1.12-2.504,1.12H108.4
		c-1.211,0-2.067-0.361-2.57-1.084c-0.405-0.581-0.608-1.455-0.608-2.622c0-1.143,0.168-1.989,0.505-2.541
		c0.503-0.815,1.394-1.224,2.673-1.224h0.016c1.289,0,2.175,0.388,2.658,1.165C111.411,132.87,111.58,133.692,111.58,134.791z
		 M110.363,135.509v-1.238c0-1.361-0.549-2.043-1.647-2.043h-0.71c-1.031,0-1.546,0.662-1.546,1.984v1.312
		c0,1.362,0.554,2.044,1.663,2.044h0.593C109.814,137.567,110.363,136.881,110.363,135.509z"/>
	<path fill="#939598" d="M116.809,132.366c0,0.191-0.083,0.245-0.249,0.162c-0.322-0.166-0.643-0.25-0.96-0.25
		c-0.605,0-0.969,0.059-1.091,0.176c-0.078,0.074-0.117,0.211-0.117,0.41v5.413c0,0.166-0.071,0.249-0.212,0.249h-0.791
		c-0.143,0-0.213-0.083-0.213-0.249v-4.856c0-0.736,0.222-1.289,0.666-1.654c0.479-0.396,1.177-0.594,2.096-0.594
		c0.272,0,0.502,0.049,0.688,0.146c0.122,0.059,0.184,0.151,0.184,0.278V132.366z"/>
	<path fill="#939598" d="M121.342,138.124c0,0.107-0.059,0.188-0.176,0.241c-0.371,0.176-0.734,0.264-1.091,0.264
		c-1.05,0-1.575-0.63-1.575-1.89v-4.424h-0.805c-0.138,0-0.205-0.073-0.205-0.22v-0.388c0-0.098,0.051-0.159,0.153-0.184
		l0.388-0.088c0.176-0.039,0.291-0.088,0.345-0.146c0.083-0.088,0.124-0.242,0.124-0.461v-1.025c0-0.127,0.066-0.191,0.198-0.191
		h0.755c0.136,0,0.205,0.074,0.205,0.221v1.486h1.318c0.136,0,0.205,0.073,0.205,0.22v0.586c0,0.127-0.066,0.19-0.198,0.19h-1.325
		v4.409c0,0.327,0.046,0.557,0.139,0.688c0.112,0.166,0.324,0.249,0.637,0.249c0.25,0,0.469-0.034,0.66-0.103
		c0.053-0.015,0.097-0.021,0.131-0.021c0.078,0.005,0.117,0.056,0.117,0.153V138.124z"/>
	<path fill="#939598" d="M127.4,136.461c0,0.703-0.234,1.243-0.703,1.618c-0.431,0.352-1.075,0.527-1.934,0.527
		c-0.768,0-1.39-0.09-1.868-0.271c-0.19-0.068-0.286-0.158-0.286-0.271v-0.455c0-0.155,0.11-0.212,0.33-0.168
		c0.43,0.088,0.998,0.132,1.707,0.132c0.561,0,0.91-0.02,1.047-0.059c0.342-0.098,0.513-0.345,0.513-0.739v-0.711
		c0-0.371-0.112-0.61-0.337-0.718c-0.137-0.068-0.408-0.103-0.812-0.103h-0.645c-0.665,0-1.158-0.166-1.48-0.498
		c-0.288-0.298-0.432-0.796-0.432-1.494c0-0.659,0.251-1.193,0.754-1.604c0.356-0.288,0.906-0.433,1.648-0.433
		c0.552,0,1.123,0.065,1.714,0.198c0.195,0.039,0.293,0.129,0.293,0.271v0.425c0,0.146-0.112,0.203-0.337,0.168
		c-0.283-0.043-0.887-0.065-1.809-0.065c-0.439,0-0.74,0.059-0.901,0.176c-0.137,0.103-0.205,0.283-0.205,0.542v0.586
		c0,0.288,0.049,0.483,0.146,0.586c0.132,0.137,0.407,0.205,0.827,0.205l0.439-0.008c0.845,0,1.444,0.172,1.799,0.514
		C127.223,135.155,127.4,135.704,127.4,136.461z"/>
	<path fill="#939598" d="M142.019,138.277c0,0.166-0.071,0.249-0.212,0.249h-0.784c-0.142,0-0.212-0.083-0.212-0.249v-4.907
		c0-0.425-0.105-0.72-0.315-0.887c-0.186-0.15-0.493-0.227-0.923-0.227h-0.601c-0.444,0-0.776,0.08-0.996,0.242
		c-0.088,0.059-0.132,0.378-0.132,0.959v4.819c0,0.166-0.068,0.249-0.205,0.249h-0.791c-0.142,0-0.213-0.083-0.213-0.249v-4.893
		c0-0.464-0.102-0.776-0.307-0.938c-0.172-0.127-0.484-0.19-0.938-0.19h-0.455c-0.518,0-0.859,0.021-1.025,0.066
		c-0.059,0.02-0.088,0.112-0.088,0.277v5.677c0,0.166-0.07,0.249-0.212,0.249h-0.784c-0.142,0-0.212-0.083-0.212-0.249v-6.481
		c0-0.122,0.004-0.192,0.011-0.209c0.008-0.018,0.06-0.06,0.158-0.129c0.077-0.059,0.3-0.117,0.666-0.176
		c0.41-0.062,0.82-0.095,1.23-0.095h0.812c0.889,0,1.526,0.335,1.912,1.003c0.415-0.668,0.952-1.003,1.611-1.003h0.85
		c1.436,0,2.153,0.723,2.153,2.168V138.277z"/>
	<path fill="#939598" d="M149.842,138.043c0,0.146-0.096,0.247-0.285,0.3l-0.345,0.088c-0.356,0.094-0.54,0.14-0.55,0.14
		c-0.347,0-0.62-0.273-0.82-0.82c-0.166,0.171-0.365,0.34-0.6,0.505c-0.338,0.234-0.77,0.352-1.297,0.352h-0.293
		c-1.421,0-2.131-0.69-2.131-2.072v-0.314c0-1.393,0.725-2.088,2.175-2.088h0.659c0.63,0,1.115,0.2,1.457,0.601l0.074-1.23
		c0.023-0.479-0.105-0.811-0.389-0.996c-0.254-0.166-0.693-0.249-1.318-0.249s-1.226,0.049-1.802,0.146
		c-0.166,0.029-0.249-0.046-0.249-0.227v-0.439c0-0.133,0.098-0.223,0.293-0.271c0.605-0.166,1.299-0.249,2.08-0.249
		c0.752,0,1.318,0.146,1.699,0.439c0.522,0.4,0.783,1.12,0.783,2.161v3.164c0,0.395,0.112,0.593,0.338,0.593h0.285
		c0.156,0,0.234,0.076,0.234,0.228V138.043z M147.828,136.966v-1.273c0-0.225-0.062-0.379-0.184-0.462
		c-0.151-0.107-0.459-0.161-0.923-0.161h-1.099c-0.386,0-0.652,0.091-0.799,0.271c-0.122,0.151-0.183,0.415-0.183,0.791v0.432
		c0,0.679,0.381,1.018,1.143,1.018h0.557c0.615,0,1.05-0.088,1.304-0.264C147.767,137.235,147.828,137.118,147.828,136.966z"/>
	<path fill="#939598" d="M157.282,138.021c0,0.133-0.1,0.232-0.3,0.301l-0.352,0.109c-0.288,0.098-0.486,0.146-0.593,0.146
		c-0.293,0-0.545-0.241-0.755-0.725c-0.386,0.474-0.872,0.711-1.458,0.711h-0.527c-1.694,0-2.541-0.874-2.541-2.623v-2.227
		c0-0.805,0.239-1.428,0.718-1.867c0.435-0.4,1.008-0.601,1.722-0.601h0.703c0.624,0,1.071,0.193,1.34,0.579v-3.494
		c0-0.166,0.07-0.249,0.213-0.249h0.769c0.137,0,0.205,0.083,0.205,0.249v8.65c0,0.381,0.112,0.57,0.337,0.57h0.293
		c0.151,0,0.227,0.076,0.227,0.228V138.021z M155.269,136.871v-4.028c0-0.195-0.062-0.337-0.184-0.425
		c-0.176-0.122-0.388-0.183-0.637-0.183h-1.377c-0.4,0-0.701,0.178-0.9,0.534c-0.162,0.273-0.242,0.599-0.242,0.974v2.293
		c0,0.986,0.415,1.479,1.245,1.479h0.85c0.425,0,0.778-0.081,1.062-0.241C155.207,137.206,155.269,137.071,155.269,136.871z"/>
	<path fill="#939598" d="M163.734,135.253c0,0.16-0.098,0.241-0.293,0.241h-4.021v0.586c0,0.552,0.153,0.936,0.462,1.149
		c0.264,0.191,0.695,0.286,1.296,0.286c0.454,0,1.081-0.052,1.882-0.153c0.205-0.024,0.309,0.049,0.309,0.219v0.418
		c0,0.107-0.084,0.19-0.25,0.249c-0.625,0.225-1.301,0.337-2.028,0.337c-0.947,0-1.65-0.246-2.109-0.74
		c-0.518-0.546-0.776-1.525-0.776-2.937c0-1.665,0.352-2.747,1.055-3.245c0.425-0.297,0.996-0.446,1.714-0.446
		c0.762,0,1.348,0.145,1.758,0.433c0.356,0.254,0.608,0.549,0.755,0.886c0.165,0.381,0.248,0.913,0.248,1.597V135.253z
		 M162.549,133.385c0-0.415-0.123-0.708-0.367-0.879s-0.646-0.257-1.208-0.257c-0.586,0-0.991,0.092-1.216,0.275
		c-0.225,0.183-0.337,0.504-0.337,0.963v1.084h3.128V133.385z"/>
	<path fill="#939598" d="M174.304,135.253c0,0.16-0.098,0.241-0.293,0.241h-4.021v0.586c0,0.552,0.153,0.936,0.462,1.149
		c0.264,0.191,0.695,0.286,1.296,0.286c0.454,0,1.081-0.052,1.882-0.153c0.205-0.024,0.309,0.049,0.309,0.219v0.418
		c0,0.107-0.084,0.19-0.25,0.249c-0.625,0.225-1.301,0.337-2.028,0.337c-0.947,0-1.65-0.246-2.109-0.74
		c-0.518-0.546-0.776-1.525-0.776-2.937c0-1.665,0.352-2.747,1.055-3.245c0.425-0.297,0.996-0.446,1.714-0.446
		c0.762,0,1.348,0.145,1.758,0.433c0.356,0.254,0.608,0.549,0.755,0.886c0.165,0.381,0.248,0.913,0.248,1.597V135.253z
		 M173.118,133.385c0-0.415-0.123-0.708-0.367-0.879s-0.646-0.257-1.208-0.257c-0.586,0-0.991,0.092-1.216,0.275
		c-0.225,0.183-0.337,0.504-0.337,0.963v1.084h3.128V133.385z"/>
	<path fill="#939598" d="M181.951,138.043c0,0.146-0.096,0.247-0.285,0.3l-0.345,0.088c-0.356,0.094-0.54,0.14-0.55,0.14
		c-0.347,0-0.62-0.273-0.82-0.82c-0.166,0.171-0.365,0.34-0.6,0.505c-0.338,0.234-0.77,0.352-1.297,0.352h-0.293
		c-1.421,0-2.131-0.69-2.131-2.072v-0.314c0-1.393,0.725-2.088,2.175-2.088h0.659c0.63,0,1.115,0.2,1.457,0.601l0.074-1.23
		c0.023-0.479-0.105-0.811-0.389-0.996c-0.254-0.166-0.693-0.249-1.318-0.249s-1.226,0.049-1.802,0.146
		c-0.166,0.029-0.249-0.046-0.249-0.227v-0.439c0-0.133,0.098-0.223,0.293-0.271c0.605-0.166,1.299-0.249,2.08-0.249
		c0.752,0,1.318,0.146,1.699,0.439c0.522,0.4,0.783,1.12,0.783,2.161v3.164c0,0.395,0.112,0.593,0.338,0.593h0.285
		c0.156,0,0.234,0.076,0.234,0.228V138.043z M179.938,136.966v-1.273c0-0.225-0.062-0.379-0.184-0.462
		c-0.151-0.107-0.459-0.161-0.923-0.161h-1.099c-0.386,0-0.652,0.091-0.799,0.271c-0.122,0.151-0.183,0.415-0.183,0.791v0.432
		c0,0.679,0.381,1.018,1.143,1.018h0.557c0.615,0,1.05-0.088,1.304-0.264C179.876,137.235,179.938,137.118,179.938,136.966z"/>
	<path fill="#939598" d="M187.767,136.461c0,0.703-0.234,1.243-0.703,1.618c-0.431,0.352-1.075,0.527-1.934,0.527
		c-0.768,0-1.39-0.09-1.868-0.271c-0.19-0.068-0.286-0.158-0.286-0.271v-0.455c0-0.155,0.11-0.212,0.33-0.168
		c0.43,0.088,0.998,0.132,1.707,0.132c0.561,0,0.91-0.02,1.047-0.059c0.342-0.098,0.513-0.345,0.513-0.739v-0.711
		c0-0.371-0.112-0.61-0.337-0.718c-0.137-0.068-0.408-0.103-0.812-0.103h-0.645c-0.665,0-1.158-0.166-1.48-0.498
		c-0.288-0.298-0.432-0.796-0.432-1.494c0-0.659,0.251-1.193,0.754-1.604c0.356-0.288,0.906-0.433,1.648-0.433
		c0.552,0,1.123,0.065,1.714,0.198c0.195,0.039,0.293,0.129,0.293,0.271v0.425c0,0.146-0.112,0.203-0.337,0.168
		c-0.283-0.043-0.887-0.065-1.809-0.065c-0.439,0-0.74,0.059-0.901,0.176c-0.137,0.103-0.205,0.283-0.205,0.542v0.586
		c0,0.288,0.049,0.483,0.146,0.586c0.132,0.137,0.407,0.205,0.827,0.205l0.439-0.008c0.845,0,1.444,0.172,1.799,0.514
		C187.589,135.155,187.767,135.704,187.767,136.461z"/>
	<path fill="#939598" d="M195.135,131.679l-2.52,7.764c-0.464,1.439-1.245,2.16-2.344,2.16c-0.234,0-0.501-0.051-0.799-0.154
		c-0.072-0.029-0.109-0.107-0.109-0.234v-0.461c0-0.103,0.096-0.146,0.285-0.132c0.405,0.024,0.562,0.036,0.469,0.036
		c0.654,0,1.113-0.417,1.377-1.252l0.338-1.092h-0.462c-0.186,0-0.315-0.106-0.388-0.322l-2.213-6.312
		c-0.083-0.234-0.024-0.352,0.176-0.352h0.836c0.126,0,0.214,0.072,0.264,0.219l1.94,5.934h0.103l1.809-5.947
		c0.039-0.137,0.145-0.205,0.315-0.205h0.739C195.146,131.327,195.208,131.444,195.135,131.679z"/>
</g>
</svg>
