<svg id="Layer_1" data-name="Layer 1" xmlns="http://www.w3.org/2000/svg" viewBox="0 0 115.86 131.69"><defs><style>.cls-1{fill:#fff;}.cls-2{fill:#f8a29d;}.cls-3{fill:#733ca6;}.cls-4{fill:#f2564d;}</style></defs><title>Sentry</title><path class="cls-1" d="M60.78,130.19h.16a15.15,15.15,0,0,0,13.12-7.57L89.6,95.7a15.1,15.1,0,0,0,0-15.12h0a15.13,15.13,0,0,0-26.19-.07l-15.7,26.91A15.14,15.14,0,0,0,60.78,130.19Z"/><path class="cls-2" d="M113.35,80.24h0a18.55,18.55,0,0,0-32.14,0h0a18.55,18.55,0,0,0,16,27.83h0A18.55,18.55,0,0,0,113.35,80.24Z"/><path class="cls-3" d="M61,131.69h-.17a16.64,16.64,0,0,1-14.36-25l15.7-26.91a16.46,16.46,0,0,1,14.37-8.26h.05a16.48,16.48,0,0,1,14.38,8.34,16.71,16.71,0,0,1,0,16.63L75.37,123.37A16.71,16.71,0,0,1,61,131.69Zm-.17-3H61a13.68,13.68,0,0,0,11.81-6.81L88.3,95a13.66,13.66,0,0,0,0-13.62,13.63,13.63,0,0,0-23.59-.07L49,108.18a13.63,13.63,0,0,0,11.76,20.5Z"/><polygon class="cls-4" points="62.08 3.01 2.61 105.77 37.58 105.81 79.7 33.6 62.08 3.01"/><path class="cls-3" d="M38.44,107.32,0,107.27,62.09,0,81.44,33.6Zm-33.22-3,31.49,0L78,33.59,62.08,6Z"/></svg>
